<svg width="110" height="36" viewBox="0 0 110 36" fill="none" xmlns="http://www.w3.org/2000/svg">
<path d="M92.9701 29.0871V17.7807H90.4958V14.9431H92.9701V9.59369H96.2086V14.9431H98.6828V17.7807H96.2086V29.0871H92.9701Z" fill="#101010"/>
<path d="M74.2471 29.0871V14.9431H77.2913V17.2608C77.9428 16.2836 78.7007 15.5758 79.5777 15.1248C80.4484 14.68 81.5132 14.4545 82.7723 14.4545C83.8246 14.4545 84.7204 14.6237 85.4658 14.9494C86.2049 15.2876 86.7812 15.7825 87.2009 16.4402C87.4515 16.8286 87.6269 17.2796 87.7396 17.7995C87.8461 18.3131 87.9025 19.2214 87.9025 20.5118V29.0871H84.6327V21.8272C84.6327 19.9668 84.4135 18.7328 83.9562 18.1189C83.5052 17.5051 82.7034 17.2044 81.5446 17.2044C80.7929 17.2044 80.1164 17.3422 79.5213 17.6178C78.9325 17.8997 78.4627 18.2943 78.1307 18.7954C77.8927 19.14 77.7236 19.5722 77.6296 20.1046C77.5356 20.637 77.4855 21.4764 77.4855 22.6478V29.0871H74.2471Z" fill="#101010"/>
<path d="M66.3921 29.0871V14.9431H69.6305V29.0871H66.3921Z" fill="#101010"/>
<path d="M65.9661 8.83578C65.9661 8.29081 66.1728 7.81475 66.5737 7.41386C66.9746 7.01297 67.4506 6.81879 68.0144 6.81879C68.5907 6.81879 69.073 7.01297 69.4551 7.39507C69.8372 7.77717 70.0314 8.25949 70.0314 8.83578C70.0314 9.41206 69.8372 9.89438 69.4488 10.289C69.0542 10.6836 68.5781 10.8778 68.0144 10.8778C67.4506 10.8778 66.9746 10.6774 66.5737 10.2765C66.1728 9.86933 65.9661 9.39327 65.9661 8.83578Z" fill="#101010"/>
<path d="M43.6665 29.0871V7.24475H47.2119V15.3064H57.9608V7.24475H61.5062V29.0871H57.9608V18.4885H47.2119V29.0871H43.6665Z" fill="#A0DB21"/>
<path d="M20.6355 23.4353C25.3548 24.6998 30.2056 21.8992 31.4701 17.18C32.7346 12.4607 29.934 7.60994 25.2147 6.34542C20.4955 5.08091 15.6447 7.88152 14.3802 12.6008C13.1157 17.32 15.9163 22.1708 20.6355 23.4353Z" fill="#A0DB21"/>
<path fill-rule="evenodd" clip-rule="evenodd" d="M23.7598 23.5498C23.9665 23.1802 24.7745 22.9171 25.3445 22.986C25.689 23.0236 25.9208 23.1802 26.0085 23.1364L26.0586 23.0173L26.1213 22.8733C25.4072 22.4912 24.524 22.5851 23.86 23.0111C23.7911 23.0612 23.6908 23.1614 23.6157 23.1739L24.2859 20.6871C24.3548 20.7185 24.455 20.8312 24.5365 20.8939C24.8873 21.1444 25.2568 21.2572 25.6765 21.2258C26.1526 21.1883 26.566 20.9502 26.8416 20.6057C27.1861 20.1672 27.2801 19.5847 27.136 19.1024C27.0233 18.7265 26.7226 18.263 26.2716 18.0813L26.1275 18.3758C26.5347 18.6013 26.7414 18.8831 26.8291 19.259C27.1172 20.399 25.8331 21.3323 24.8246 20.6871C24.5741 20.5243 24.5427 20.4178 24.4049 20.2737C24.7119 19.0209 25.1065 17.6429 25.451 16.3713C25.5638 15.9453 25.6765 15.4881 25.8081 15.0747C25.9333 14.655 26.0398 14.1977 26.1526 13.7718C26.2653 13.3458 26.4031 12.9011 26.5096 12.4751C26.6036 12.0554 26.7289 11.5856 26.8541 11.1785C26.9732 10.7776 27.0358 10.3015 27.2801 10.0196C27.3177 9.95075 27.349 9.91316 27.3991 9.86305C27.4179 9.84426 27.4492 9.80668 27.4617 9.80041C27.5306 9.73777 27.4868 9.76909 27.5369 9.7503C27.5745 9.68766 27.6121 9.66887 27.6685 9.65008C27.7123 9.5937 27.681 9.62502 27.7436 9.58117C27.7624 9.56865 27.7875 9.55612 27.8125 9.54359C27.8689 9.51227 27.894 9.48095 27.9754 9.46842C28.0443 9.42457 28.3387 9.32435 28.4264 9.37446C28.4828 9.31809 28.4201 9.34941 28.5266 9.33688C28.5391 9.33688 28.608 9.34314 28.6206 9.34314C28.6957 9.34941 28.7646 9.34941 28.8335 9.35567L29.0528 9.41205C29.2908 9.48721 29.3096 9.51227 29.3535 9.54359C29.3535 9.54359 29.3597 9.54985 29.366 9.55612C29.5038 9.5937 29.7669 9.84426 29.842 9.93822C29.8859 9.98833 29.8984 10.0071 29.9297 10.051C29.9798 10.1199 29.9736 10.1073 29.9924 10.1888C30.0863 10.2577 30.2179 10.6648 30.1866 10.8026C30.2116 10.8402 30.2053 10.7713 30.2179 10.8903C30.2179 10.9029 30.2116 10.9718 30.2116 10.9906C30.2053 11.0657 30.2053 11.1221 30.1928 11.2035L30.0362 11.7047L29.8734 11.9677C29.8483 11.9928 29.842 11.9928 29.8295 12.0053L29.7543 12.093C29.7042 12.1619 29.6854 12.1619 29.6291 12.212C29.604 12.2371 29.5915 12.2496 29.5602 12.2684C29.5038 12.3123 29.5351 12.2872 29.4975 12.2997C29.4599 12.3436 29.4411 12.3686 29.3848 12.3686C29.3096 12.4438 29.1029 12.5378 28.9588 12.544C28.7521 12.6317 28.2447 12.6004 28.0004 12.4876L27.8752 12.4438C27.7937 12.5002 27.7561 12.6004 27.7248 12.7069C27.7749 12.7507 27.7937 12.7445 27.8251 12.7883L28.3638 12.9136C28.8461 13.0201 29.0277 12.757 29.2407 12.9324C29.4975 13.1454 29.817 13.2518 30.174 13.2706L30.1928 12.9449C29.8107 12.8823 29.8295 12.8697 29.5038 12.7194L29.5476 12.6881L29.8295 12.4876C29.8358 12.4876 29.8483 12.4751 29.8483 12.4814C29.8546 12.4876 29.8671 12.4751 29.8734 12.4689C29.8859 12.4125 29.8796 12.4375 29.936 12.3937C29.9861 12.3373 30.0174 12.3123 30.0738 12.2496C30.0926 12.2246 30.1177 12.1807 30.1364 12.1619C30.2053 12.0742 30.1552 12.1306 30.2179 12.0993L30.2367 12.0304C30.2743 11.9489 30.2868 11.9552 30.3181 11.88C30.3306 11.855 30.3432 11.8174 30.3557 11.7986C30.4183 11.6733 30.3557 11.761 30.4183 11.7172L30.5248 11.3351C30.5185 11.3038 30.5185 11.3226 30.5185 11.2787C30.5185 11.2536 30.5248 11.2098 30.5311 11.1847C30.5436 11.1096 30.5436 11.0845 30.5436 11.0219C30.5436 10.9718 30.5499 10.8715 30.5499 10.8089C30.5499 10.7275 30.5248 10.6962 30.5436 10.6085C30.6626 10.6335 30.7503 10.6523 30.8255 10.7275C31.1637 10.8778 31.5083 11.4979 31.383 11.8863C31.408 11.9427 31.383 12.0178 31.3579 12.093C31.3579 12.0993 31.3266 12.2058 31.3266 12.2058C31.3266 12.3185 31.2702 12.2434 31.3767 12.2935C32.1597 12.2371 32.6921 12.8384 32.4729 13.54C32.3038 13.4961 32.1785 13.4648 32.0094 13.4523C31.8778 13.4398 31.7338 13.4586 31.6147 13.446L31.2138 13.5212C31.1512 13.5525 31.0385 13.5776 30.9696 13.6026C30.9006 13.6339 30.7816 13.7091 30.719 13.7028C30.6501 13.7718 30.6689 13.7467 30.5937 13.7905C30.5436 13.8281 30.5373 13.8407 30.4622 13.8594C30.4309 13.9158 30.3807 13.9534 30.3244 13.9659C30.2868 14.0098 30.2555 14.0348 30.2053 14.085C30.1991 14.0912 30.1552 14.1413 30.1427 14.1476C30.0738 14.204 30.1427 14.1601 30.0738 14.1852L30.0237 14.2854C29.9798 14.3355 29.9548 14.3606 29.9297 14.3981C29.9047 14.4295 29.9047 14.4357 29.8796 14.4545C29.8483 14.4858 29.8671 14.4733 29.8358 14.4858C29.8045 14.6111 29.6291 14.8617 29.5727 15.0308C29.4975 15.2563 29.4787 15.4818 29.4474 15.7073L29.0465 15.77L28.7897 15.8514C28.7521 15.8827 28.7208 15.914 28.6582 15.9078C28.583 15.9892 28.583 15.9704 28.4953 16.0268C28.4577 16.0518 28.4514 16.0644 28.4201 16.0894C28.3387 16.1521 28.4013 16.1145 28.3262 16.1395C28.3074 16.1896 28.2698 16.221 28.2259 16.246C28.1884 16.3212 28.1696 16.3149 28.1257 16.3776C28.1069 16.4026 28.0944 16.4277 28.0819 16.4465C28.038 16.5028 28.0631 16.4715 28.0255 16.4966L27.9816 16.6093C27.8752 16.8474 27.8501 16.9664 27.7937 17.2357C27.8 17.2984 27.7812 17.2984 27.8063 17.361L28.1007 17.3735L28.1445 17.2169C28.132 17.1668 28.1257 17.2608 28.1382 17.1355C28.1382 17.1167 28.1508 17.0666 28.157 17.0478C28.1758 16.9852 28.1946 16.9538 28.2134 16.9037C28.2447 16.8223 28.2886 16.7033 28.3575 16.6406L28.5016 16.4527C28.5266 16.4339 28.5454 16.4089 28.5705 16.3901C28.583 16.3838 28.6018 16.3713 28.6143 16.3588L28.6456 16.3462C28.6832 16.2961 28.7772 16.2272 28.8398 16.2272C28.8962 16.1771 28.8461 16.2084 28.9275 16.1708C28.94 16.1583 28.9776 16.1458 29.0027 16.1395C29.0778 16.1145 29.1154 16.1019 29.1843 16.0957C29.5539 15.9516 30.2179 16.2084 30.4246 16.4966C30.4872 16.5467 30.4496 16.5279 30.5185 16.5592L30.6626 16.4402C30.7065 16.3963 30.7127 16.4026 30.7503 16.34C30.3557 15.9704 30.3933 15.9641 29.7857 15.7637C29.8045 15.3565 29.9798 14.7928 30.2304 14.5485L30.4559 14.3105C30.4935 14.2729 30.4935 14.2541 30.5499 14.2415C30.6 14.1852 30.6125 14.1726 30.6877 14.1225C30.719 14.1037 30.7315 14.0912 30.7628 14.0787C30.813 14.0474 30.7816 14.0662 30.8317 14.0536C30.9132 13.9597 31.2514 13.8469 31.383 13.8407C31.4268 13.8156 31.383 13.8281 31.4519 13.8093C31.4769 13.8031 31.4769 13.8031 31.502 13.8031C31.5584 13.7968 31.5959 13.7905 31.6461 13.7905C33.638 13.753 34.3333 15.6948 33.5566 16.91C33.1431 17.5489 32.6546 17.6429 32.5355 17.7556C32.5856 17.8684 32.6984 17.9561 32.7736 18.0626C32.8738 18.1878 32.9051 18.2567 32.9677 18.3945C33.3436 19.2402 32.9615 20.1986 32.1848 20.6182C32.1221 20.5744 31.9718 20.3489 31.8966 20.2675C31.4769 19.7977 31.0823 19.6787 30.5248 19.5095C30.4058 19.5346 30.2241 19.4845 30.0863 19.4845C29.936 19.4845 29.7982 19.5221 29.6667 19.5095C29.5915 19.0711 29.5852 18.6388 29.8483 18.2004C29.9172 18.0876 30.0425 17.9561 30.0926 17.8558C30.0112 17.7932 29.936 17.693 29.8546 17.6491C29.6416 17.8371 29.4286 18.2254 29.3472 18.5637C29.1969 19.14 29.3535 19.4281 29.3347 19.616C29.1781 19.6536 28.7584 19.854 28.6957 19.9731L28.8899 20.2299C29.1342 20.0044 29.723 19.7851 30.0801 19.829C32.1346 19.8102 32.9427 22.3972 31.3579 23.556C30.9758 23.8316 30.2304 24.0822 29.7857 23.9131C29.6917 23.5686 29.7669 23.6249 29.5664 23.2428C29.5226 23.1551 29.4599 23.0674 29.3722 22.9735C29.3096 22.8983 29.1781 22.7918 29.128 22.7292C29.2595 22.5851 29.7042 22.5726 29.9548 22.6164L30.03 22.3032C29.5852 22.1466 29.0089 22.3534 28.7772 22.5162C28.4327 22.748 28.1884 23.0299 28.038 23.5999L28.3638 23.6688C28.5203 23.2366 28.5078 23.224 28.7834 22.9296C28.9714 22.986 29.1655 23.2303 29.2407 23.3556C29.3409 23.5122 29.4098 23.6751 29.4411 23.9193C29.5915 25.1909 27.9816 25.8988 27.1235 24.9404C26.9105 24.7023 26.923 24.5708 26.8353 24.433L26.5409 24.5144C26.5409 24.7086 26.7289 25.003 26.8604 25.1533C26.9043 25.2097 26.9606 25.2473 27.0107 25.3099C26.779 26.5251 25.3257 27.2392 24.1857 26.5815C23.6658 26.2871 23.3401 25.8048 23.2336 25.2849C23.1709 24.9278 23.1897 24.7086 23.2962 24.314C23.3651 24.0572 23.5781 23.6375 23.7598 23.5498ZM29.8734 9.46842L29.6479 9.31809C29.4224 9.17402 29.366 9.18655 29.2971 9.14896C29.2658 9.12391 29.2658 9.12391 29.2532 9.10511L29.1718 9.09259L28.8837 9.02368L28.6832 8.99863C28.6769 8.99863 28.6644 9.01115 28.6644 9.00489L28.3074 9.02368C28.2447 9.04874 27.8564 9.14896 27.8376 9.1427C27.7812 9.19907 27.8438 9.15523 27.7687 9.19907L27.706 9.22413C27.6183 9.26171 27.6497 9.26798 27.562 9.29303C27.5244 9.33062 27.468 9.3682 27.4242 9.37446L27.1736 9.60623L27.0796 9.72524L26.8917 9.95701C26.8604 10.0823 26.7477 10.2514 26.6224 10.7463L25.9083 13.3897C25.5888 14.5673 25.2756 15.7449 24.9624 16.9225L23.1208 23.7565C23.0895 23.863 23.0958 23.9068 23.0457 23.9444C23.0081 24.1198 22.9266 24.2889 22.8828 24.5019C22.8452 24.6961 22.8452 24.8276 22.8452 25.003C22.8828 26.5001 24.5678 27.7278 26.1839 26.9072C26.6474 26.6692 27.0734 26.2245 27.2989 25.5292C27.681 25.6357 27.7749 25.7484 28.2009 25.7296C28.4702 25.7234 28.7271 25.6419 28.9024 25.548C29.4787 25.2348 29.6291 24.8589 29.7919 24.3014L29.8984 24.2827C30.1302 24.2827 30.1364 24.314 30.4622 24.2701C31.0447 24.1887 31.5897 23.9006 31.978 23.4245C32.2474 23.105 32.4792 22.6478 32.523 22.1592C32.5794 21.4075 32.4103 21.3073 32.3476 20.9314C32.4103 20.8563 32.5731 20.7811 32.6859 20.6871C33.2997 20.186 33.5691 19.3905 33.3937 18.6075C33.3123 18.2317 33.1807 18.1127 33.0617 17.8746C33.1056 17.8057 33.2308 17.7368 33.306 17.6805C33.9512 17.1668 34.2769 16.4026 34.1892 15.5632C34.1141 14.8366 33.6818 14.1789 33.0868 13.8093C33.0429 13.7843 32.9928 13.7592 32.9364 13.7279C32.6608 13.5838 32.9302 13.5901 32.8425 13.0514C32.7548 12.4689 32.3539 12.1118 31.7338 11.9552C31.7525 11.4541 31.7087 11.2286 31.4644 10.8653C31.2264 10.502 30.9194 10.3579 30.4058 10.2201C30.3557 10.0886 30.268 9.93195 30.1803 9.81294C30.0738 9.6626 29.8984 9.50601 29.8734 9.46842Z" fill="#101010"/>
<path fill-rule="evenodd" clip-rule="evenodd" d="M18.8989 22.7041C18.9615 22.6478 19.0367 22.6039 19.0868 22.5287L18.8676 22.297C18.7298 22.3847 18.6421 22.4912 18.4917 22.5413C18.1222 22.7417 17.477 22.6916 17.0823 22.3408C16.7566 22.0652 16.5374 21.6267 16.6439 21.0692C16.7817 20.3865 17.4707 19.9417 17.9342 20.0232C18.0157 20.2863 18.0157 20.5493 17.928 20.8688L18.2474 20.9753C18.3915 20.4053 18.3477 20.067 18.1472 19.6661C18.0345 19.4406 17.621 18.9207 17.17 18.8643L17.0823 19.165C17.3141 19.259 17.7025 19.4845 17.7338 19.6786C17.6336 19.7162 17.5208 19.7225 17.4018 19.7663C17.2703 19.8102 17.2076 19.8415 17.0949 19.9104C16.9132 20.0169 16.8381 20.0858 16.7002 20.2236L16.5687 20.3739C15.9987 20.2487 15.4349 19.5659 15.2909 18.9834C15.2094 18.6576 15.1844 18.3194 15.2909 17.9185C15.5539 16.9162 16.5687 16.2397 17.6461 16.4214C18.0533 16.4903 18.379 16.6594 18.6421 16.8724C18.8175 17.0227 18.9866 17.2169 19.1056 17.4174C19.1557 17.4988 19.1557 17.5489 19.2121 17.6241C19.3061 17.5928 19.4313 17.5489 19.4814 17.48C19.4626 17.3422 19.2434 17.0102 19.1181 16.91C19.187 16.7158 19.4814 16.4966 19.6318 15.9579C19.7069 15.6823 19.7445 15.106 19.6443 14.918L19.3123 14.987C19.3374 15.0997 19.3687 15.0809 19.3812 15.3691C19.3937 15.8326 19.1933 16.3024 18.9114 16.6093C18.6609 16.5529 18.3289 16.1082 17.4331 16.0581C17.1763 16.0456 16.9759 16.0644 16.7566 16.1207C16.4184 16.2022 16.2806 16.34 16.1052 16.2961C16.0425 16.0456 15.6855 15.5194 15.9862 14.7928C16.1991 14.2854 16.6 13.8657 17.0009 13.7905C17.0322 13.7655 17.0072 13.778 17.051 13.7592C17.0823 13.7467 17.0761 13.753 17.1137 13.7467L17.2703 13.6715C17.2452 13.54 16.8255 13.1579 16.8067 12.3874C16.8005 12.2559 16.8443 12.1744 16.8381 12.0617C16.8255 11.8487 16.9571 11.6044 17.0385 11.429C17.0698 11.3539 17.1011 11.3225 17.1325 11.2536C17.145 11.2286 17.1513 11.2035 17.17 11.1785C17.2264 11.097 17.1951 11.1472 17.2327 11.1221C17.2765 11.0281 17.3392 10.9843 17.4269 10.9029C17.4645 10.8653 17.4832 10.8402 17.5208 10.8026C17.5521 10.7713 17.596 10.7525 17.6336 10.7212C17.6837 10.646 17.7526 10.6147 17.834 10.5834L17.9217 10.5521C17.953 10.4894 18.0721 10.4644 18.141 10.4393C18.4354 10.3516 18.6609 10.3015 19.0116 10.3141C19.3875 10.3328 19.9951 10.5771 20.183 10.8089C20.4461 11.0219 20.4398 11.0219 20.6027 11.2724C20.6653 11.3664 20.6779 11.3852 20.6904 11.4666L20.728 11.5293C20.7843 11.6608 20.9096 11.9865 20.872 12.1055L20.9096 12.4187C20.8908 12.6004 20.8219 12.9136 20.753 13.0952C20.6027 13.4586 20.7781 13.2393 20.089 13.2393C19.9512 13.2393 19.6944 13.2581 19.5754 13.2832C19.5128 13.4147 19.5503 13.4084 19.613 13.6402C19.8134 13.6841 19.9763 13.4961 20.4148 13.5901C20.966 13.7154 21.3168 14.1351 21.4295 14.6487C21.5172 15.0746 21.3982 15.1373 21.3042 15.5507L21.5924 15.6948C21.8367 15.1185 21.8868 14.6738 21.5987 14.1288L21.3418 13.7404C21.2729 13.6966 21.2479 13.659 21.1852 13.6151C21.1539 13.5838 21.1539 13.5901 21.1101 13.5588C21.0286 13.5024 21.0725 13.5462 21.0286 13.4773L20.966 13.4523C21.0161 13.3207 21.0662 13.2644 21.1038 13.1328C21.1477 12.995 21.1664 12.8447 21.2228 12.7194L21.2103 12.6818C21.204 12.663 21.204 12.6505 21.204 12.6254L21.2353 12.2621C21.1664 11.9176 21.2541 12.0053 21.06 11.4353L20.8846 11.072C20.8282 10.9404 20.8783 11.0156 20.753 10.9154C20.7092 10.8841 20.6465 10.7838 20.6277 10.7525L20.4148 10.5458C20.302 10.502 20.3208 10.4017 19.9826 10.2639C19.9011 10.2326 19.4689 10.051 19.4501 10.0322C19.4564 9.90063 19.6005 9.65007 19.6694 9.60622L19.9324 9.41831C20.0139 9.31808 20.1893 9.32435 20.3333 9.29929C20.5463 9.26797 20.6465 9.36819 20.8658 9.41204C20.9472 9.47468 20.9723 9.49974 21.0913 9.51227C21.1163 9.42457 21.1101 9.29929 21.1539 9.2116C21.1727 9.17401 21.1539 9.19907 21.179 9.16775C21.204 9.13016 21.1978 9.13643 21.2228 9.11764C21.2917 8.82323 21.8242 8.45992 22.0747 8.45366C22.1687 8.39102 22.3253 8.43487 22.4443 8.43487L22.5946 8.47245C22.5508 8.56015 22.4881 8.62905 22.4255 8.72301C22.3691 8.81697 22.3127 8.91719 22.2814 9.02368L22.1499 9.47468C22.0685 10.076 22.2188 10.3955 22.413 10.7901C22.225 10.8903 21.8179 10.7024 21.7051 10.6711C21.6425 10.7838 21.5924 10.8152 21.5548 10.9592C21.8367 11.1096 22.1374 11.1722 22.438 11.1409C22.6761 11.1158 22.6197 11.097 22.7951 11.2474C22.889 11.3225 23.0018 11.3914 23.1083 11.4666C23.2649 11.523 23.34 11.5856 23.5029 11.6295C23.6658 11.6733 23.791 11.6921 23.9602 11.7234L23.9915 11.3977C23.459 11.2912 23.3776 11.2536 23.0018 10.978C22.9642 10.9467 22.9454 10.9404 22.9141 10.9029L22.8828 10.8653C22.8389 10.8026 22.864 10.8402 22.8514 10.7964C22.7387 10.7275 22.5884 10.4205 22.5445 10.2702C22.4881 10.0698 22.4192 9.83173 22.4756 9.59996C22.4631 9.52479 22.5007 9.40578 22.5257 9.31182C22.5821 9.14269 22.6635 8.95477 22.7575 8.8295C22.8327 8.72927 22.9642 8.57267 23.0707 8.49751C23.221 8.38476 23.6845 8.11541 23.885 8.16552C23.9226 8.14673 23.8662 8.15299 23.9602 8.14046C23.9602 8.14046 24.0291 8.1342 24.0353 8.1342C24.098 8.1342 24.1543 8.14046 24.2107 8.14046L24.4487 8.17805L24.7494 8.2908C24.9687 8.34091 25.2881 8.65411 25.4009 8.8107C25.5011 8.94225 25.7266 9.35567 25.6827 9.56864C25.7078 9.60622 25.689 9.55611 25.7078 9.63754C25.7141 9.65634 25.7141 9.71271 25.7141 9.7315C25.7203 9.80041 25.7078 9.86931 25.7015 9.93821C25.5199 10.74 25.2944 11.5794 25.0751 12.3874C24.4989 14.4483 23.9539 16.578 23.3964 18.6514C23.2899 19.046 23.1897 19.5283 23.0644 19.9041C22.7011 20.0545 22.3002 20.161 21.8304 19.9229C20.5463 19.2715 21.0662 17.3359 22.5007 17.4048L22.5382 17.0979C22.3378 17.029 21.9745 17.123 21.8242 17.1856C20.183 17.8621 20.5526 20.1735 22.2188 20.3802C22.3879 20.399 22.4756 20.399 22.6071 20.3802C22.7199 20.3739 22.864 20.3238 22.9517 20.3238L22.2877 22.8169C22.2313 22.773 22.1436 22.5037 22.0121 22.3095C21.5987 21.7207 21.0474 21.3762 20.2707 21.3073L20.2331 21.6267C20.7655 21.7645 21.1664 21.7771 21.6174 22.3408C21.8743 22.6603 22.0872 23.0925 22.0559 23.6187C22.0622 23.8504 21.8931 24.3516 21.774 24.5395C21.6237 24.7838 21.4546 24.9654 21.2729 25.1032C19.7946 26.1932 17.7087 24.8026 18.285 22.961C18.5105 22.9484 18.7486 22.773 18.8989 22.7041ZM22.3816 23.8316C22.3691 23.6938 23.0707 21.1632 23.1709 20.7936L24.3986 16.2084C24.5302 15.701 24.6555 15.1811 24.8121 14.6863C24.9624 14.1914 25.0564 13.6527 25.2192 13.1579C25.3695 12.6756 25.4698 12.1243 25.6138 11.6357L25.6827 11.3727C25.902 10.5145 26.1839 9.99459 25.9584 9.20533C25.927 9.09258 25.902 9.02368 25.8581 8.93598C25.8143 8.84829 25.7329 8.74806 25.7329 8.67916C25.6326 8.5852 25.6577 8.57894 25.5575 8.47245C25.5324 8.44739 25.5387 8.45992 25.5199 8.43487C25.4948 8.40355 25.5074 8.42234 25.4948 8.38476C25.4385 8.35344 25.3633 8.272 25.2944 8.22189C25.213 8.15925 25.144 8.12167 25.0689 8.06529C24.7995 7.94002 24.5991 7.84606 24.2608 7.80847L24.0729 7.78342C24.0353 7.80221 24.0917 7.78968 24.0165 7.80221C23.9977 7.80221 23.9602 7.80221 23.9414 7.80221C23.8725 7.80847 23.8474 7.81474 23.7785 7.821C23.6344 7.86485 23.6031 7.83353 23.315 7.95254C22.7011 8.21563 23.1897 8.272 22.4192 8.09035L22.0371 8.10288C22.0058 8.12167 21.962 8.12167 21.9181 8.14046C21.868 8.15299 21.8304 8.17178 21.774 8.19684C21.6738 8.23442 21.5987 8.272 21.5047 8.30959C21.4546 8.3597 21.4546 8.34717 21.4045 8.38476C21.4045 8.38476 21.3606 8.4286 21.3544 8.4286C21.2917 8.47245 21.3418 8.44739 21.2855 8.46619L21.1351 8.62905C21.1226 8.64158 21.1226 8.65411 21.1101 8.66663C21.0474 8.72927 21.1038 8.67916 21.06 8.70422C21.06 8.71048 20.8846 9.02994 20.8783 9.04247L20.6779 8.97983C20.4586 8.91093 20.5213 8.99236 20.3083 8.96104C20.2456 8.97357 20.1517 8.9673 20.0577 8.99236C19.9826 9.00489 19.9074 9.06126 19.8197 9.04873L19.6005 9.20533C19.5942 9.20533 19.5879 9.2116 19.5817 9.2116V9.21786C19.5065 9.33688 19.4564 9.31182 19.3687 9.43083C19.281 9.53732 19.3061 9.63754 19.1808 9.72524L19.068 9.99459C18.9615 10.0134 18.8175 9.96953 18.711 9.96327C18.4667 9.95701 17.9593 10.1637 17.8466 10.1825C17.8403 10.1825 17.8278 10.195 17.8278 10.1888L17.7839 10.2201C17.7589 10.2326 17.7589 10.2264 17.7213 10.2514C17.6774 10.2827 17.6586 10.3141 17.596 10.3454C17.2452 10.5521 17.4081 10.4331 17.1262 10.7149C17.0698 10.7651 17.0009 10.8026 16.9696 10.8465C16.9383 10.8903 16.9007 10.9968 16.8631 11.0595C16.7253 11.31 16.7065 11.2286 16.5624 11.7422C16.4184 12.2559 16.4685 12.6442 16.6126 13.1015C16.6501 13.2205 16.7504 13.4398 16.7566 13.5024C16.6689 13.6026 16.5061 13.5275 16.1177 13.9722C15.0027 15.2312 15.8609 16.4402 15.8484 16.5091C15.8108 16.5717 15.579 16.7534 15.4913 16.8536C15.0215 17.386 14.9338 17.837 14.8774 18.4948C14.9338 19.4469 15.4161 20.2675 16.3808 20.6871C16.2492 21.2446 16.1678 21.6768 16.5311 22.2406C16.6564 22.4348 16.8318 22.6102 17.051 22.748C17.3642 22.9484 17.5584 22.9484 17.9217 23.0111C17.4206 25.0531 19.6944 26.594 21.4045 25.4352C21.9557 25.0656 22.2 24.6647 22.3816 23.8316Z" fill="#101010"/>
<path fill-rule="evenodd" clip-rule="evenodd" d="M22.2815 32.3256C22.4193 32.2629 22.7325 32.1439 22.7951 32.0437L21.6175 31.5488C20.8533 31.2106 20.0139 30.8849 19.2623 30.5466C19.0305 30.4401 18.2663 30.0893 18.0596 30.0518C17.9656 30.4276 18.1849 30.5028 18.3477 30.5842C18.4417 30.6343 18.4292 30.6844 18.473 30.7658C18.7423 31.3296 19.2372 32.0124 19.7133 32.4571C20.3522 33.071 21.605 32.6137 22.2815 32.3256Z" fill="#101010"/>
<path fill-rule="evenodd" clip-rule="evenodd" d="M24.3422 29.1122C24.6366 28.8365 24.4926 28.6361 24.5489 28.348C24.7557 28.3981 24.7807 28.3667 24.8747 27.8907L18.8488 26.2809C18.8049 26.3873 18.7235 26.6379 18.7548 26.7319C18.8049 26.8133 21.2291 27.7842 21.5423 27.9345L24.3422 29.1122Z" fill="#101010"/>
<path fill-rule="evenodd" clip-rule="evenodd" d="M23.6094 31.7117C23.7597 31.5676 23.9226 31.2106 23.7723 31.0227C23.7159 30.9538 23.1459 30.7345 23.0269 30.6844C22.6322 30.5215 18.5983 28.7927 18.4041 28.7426C18.2725 28.8929 18.141 29.25 18.2475 29.4316C18.2725 29.4567 23.1897 31.5802 23.6094 31.7117Z" fill="#101010"/>
<path fill-rule="evenodd" clip-rule="evenodd" d="M23.8912 30.3712C24.0854 30.1645 24.1543 29.9327 24.0541 29.6634C23.1834 29.3001 22.3189 28.918 21.4608 28.5672C21.2478 28.4795 18.9803 27.4961 18.8425 27.471C18.617 27.6339 18.5856 27.9283 18.7297 28.1162C18.8299 28.2477 19.2434 28.3793 19.4187 28.4607L22.4004 29.7511C22.6697 29.8638 23.7033 30.3462 23.8912 30.3712Z" fill="#101010"/>
<path fill-rule="evenodd" clip-rule="evenodd" d="M16.4561 9.19294C16.3559 9.1303 16.2995 9.06766 16.2556 8.97369C16.1805 8.96116 16.2118 8.96116 16.193 8.92358C15.9737 8.73565 14.8712 7.57047 14.7334 7.52036C14.6833 7.55794 14.6833 7.583 14.6332 7.63311C14.4264 7.80852 14.5517 7.80852 14.8775 8.14679L15.9737 9.25559C16.0113 9.29317 16.0489 9.33076 16.0928 9.36835C16.1115 9.38088 16.1429 9.40593 16.1491 9.4122C16.1867 9.46231 16.1679 9.43726 16.193 9.49364C16.3183 9.51243 16.7067 10.0136 16.7505 10.0386C16.8507 10.0073 16.8194 10.0136 16.8883 9.90708C16.9698 9.78806 16.9823 9.8695 17.0387 9.76927C17.0136 9.71915 16.525 9.31823 16.4561 9.19294Z" fill="#101010"/>
<path fill-rule="evenodd" clip-rule="evenodd" d="M14.1758 14.4984C13.9816 14.4232 13.6246 14.348 13.4116 14.2917C13.1548 14.2228 12.8917 14.1539 12.6349 14.085L11.2693 13.7154C11.2443 13.7091 11.2004 13.6966 11.1754 13.6966C11.1691 13.6966 11.1629 13.6966 11.1566 13.6966H11.119C11.0564 13.7843 11.0188 13.8344 11 14.0286L14.0505 14.8554C14.1382 14.8617 14.1257 14.8053 14.1445 14.7114C14.1633 14.6174 14.1821 14.5735 14.1758 14.4984Z" fill="#101010"/>
<path fill-rule="evenodd" clip-rule="evenodd" d="M37.7971 13.7028C37.6969 13.6778 37.1457 13.8532 37.0079 13.8845C36.7323 13.9597 36.4817 14.0286 36.2374 14.0912C35.705 14.229 35.1851 14.3794 34.7028 14.5046C34.709 14.6174 34.7466 14.7677 34.8092 14.8617L37.8661 14.0474C37.8786 13.9409 37.8347 13.8031 37.7971 13.7028Z" fill="#101010"/>
<path fill-rule="evenodd" clip-rule="evenodd" d="M37.8849 20.85L34.7968 20.0357C34.6339 20.4867 34.6778 20.3802 35.1914 20.518C36.0057 20.7373 37.008 21.0317 37.7909 21.2133L37.8849 20.85Z" fill="#101010"/>
<path fill-rule="evenodd" clip-rule="evenodd" d="M14.0944 20.0482C13.9691 20.0232 13.8063 20.0983 13.681 20.1359L11.0063 20.85C10.9937 20.9252 11.0626 21.1256 11.0814 21.2008C11.1378 21.2071 14.0443 20.4366 14.1758 20.3802L14.0944 20.0482Z" fill="#101010"/>
<path fill-rule="evenodd" clip-rule="evenodd" d="M34.0954 7.51407C33.8636 7.81476 31.9592 9.60637 31.859 9.78177L32.1158 10.0198L33.2434 8.90476C33.4188 8.73562 34.3084 7.86487 34.371 7.75212C34.3084 7.68947 34.1956 7.55792 34.0954 7.51407Z" fill="#101010"/>
<path fill-rule="evenodd" clip-rule="evenodd" d="M27.0294 7.04428V7.08186L27.3802 7.16956L28.2008 4.09396L27.85 4L27.0294 7.04428Z" fill="#101010"/>
<path fill-rule="evenodd" clip-rule="evenodd" d="M32.1221 24.8715C32.0406 24.9153 31.9091 25.0469 31.8652 25.122L32.9928 26.2559C33.3374 26.6004 33.7508 27.0076 34.1141 27.3772C34.1705 27.3459 34.3334 27.1955 34.371 27.1141L32.1221 24.8715Z" fill="#101010"/>
<path fill-rule="evenodd" clip-rule="evenodd" d="M21.6738 7.15704C21.7678 7.0944 21.8492 7.18836 21.8304 6.97538L21.5799 6.04205L21.0349 4.01254C20.9159 4.00627 20.8094 4.05012 20.6967 4.08144C20.6653 4.18793 21.1477 5.87919 21.204 6.10469L21.298 6.46174C21.3293 6.58075 21.3919 6.69977 21.3857 6.80626C21.4295 6.86889 21.4358 6.90648 21.4546 6.98791C21.4734 7.07561 21.4734 7.08187 21.4984 7.15077C21.6425 7.18836 21.5548 7.13198 21.6738 7.15704Z" fill="#101010"/>
</svg>
