<svg width="98" height="32" viewBox="0 0 98 32" fill="none" xmlns="http://www.w3.org/2000/svg">
<g clip-path="url(#clip0_2_2)">
<path d="M85.5631 27.2882V16.3418H83.1917V13.5946H85.5631V8.41553H88.667V13.5946H91.0384V16.3418H88.667V27.2882H85.5631Z" fill="#FEFEFE"/>
<path d="M67.6183 27.2882V13.5946H70.5361V15.8385C71.1605 14.8924 71.8869 14.2071 72.7274 13.7705C73.5619 13.3399 74.5825 13.1216 75.7892 13.1216C76.7979 13.1216 77.6564 13.2853 78.3708 13.6007C79.0792 13.9282 79.6316 14.4073 80.0338 15.044C80.2739 15.42 80.442 15.8567 80.5501 16.36C80.6522 16.8573 80.7062 17.7367 80.7062 18.9859V27.2882H77.5723V20.2595C77.5723 18.4583 77.3622 17.2636 76.9239 16.6693C76.4917 16.075 75.7232 15.7839 74.6125 15.7839C73.8921 15.7839 73.2437 15.9173 72.6734 16.1841C72.109 16.457 71.6588 16.8391 71.3406 17.3243C71.1124 17.6578 70.9503 18.0763 70.8603 18.5917C70.7702 19.1072 70.7222 19.9199 70.7222 21.0539V27.2882H67.6183Z" fill="#FEFEFE"/>
<path d="M60.0898 27.2882V13.5946H63.1937V27.2882H60.0898Z" fill="#FEFEFE"/>
<path d="M59.6816 7.68177C59.6816 7.15416 59.8797 6.69326 60.2639 6.30513C60.6482 5.917 61.1044 5.729 61.6448 5.729C62.1971 5.729 62.6594 5.917 63.0256 6.28694C63.3918 6.65687 63.5779 7.12384 63.5779 7.68177C63.5779 8.2397 63.3918 8.70667 63.0196 9.08873C62.6414 9.47079 62.1851 9.65879 61.6448 9.65879C61.1044 9.65879 60.6482 9.46473 60.2639 9.0766C59.8797 8.68241 59.6816 8.22151 59.6816 7.68177Z" fill="#FEFEFE"/>
<path d="M38.3088 27.2882V6.14136H41.7068V13.9463H52.009V6.14136H55.407V27.2882H52.009V17.0271H41.7068V27.2882H38.3088Z" fill="#A0DB21"/>
<path d="M16.235 21.8165C20.7581 23.0407 25.4073 20.3293 26.6192 15.7603C27.8312 11.1914 25.147 6.49503 20.6239 5.27078C16.1008 4.04653 11.4516 6.75796 10.2396 11.3269C9.02768 15.8959 11.7119 20.5922 16.235 21.8165Z" fill="#A0DB21"/>
<path fill-rule="evenodd" clip-rule="evenodd" d="M19.2293 21.9273C19.4274 21.5695 20.2019 21.3148 20.7482 21.3815C21.0784 21.4179 21.3006 21.5695 21.3846 21.527L21.4326 21.4118L21.4927 21.2723C20.8083 20.9024 19.9617 20.9933 19.3254 21.4057C19.2593 21.4542 19.1633 21.5513 19.0912 21.5634L19.7336 19.1558C19.7997 19.1861 19.8957 19.2953 19.9738 19.3559C20.31 19.5985 20.6642 19.7077 21.0664 19.6774C21.5227 19.641 21.9189 19.4105 22.1831 19.077C22.5133 18.6525 22.6033 18.0885 22.4653 17.6215C22.3572 17.2576 22.069 16.8089 21.6368 16.633L21.4987 16.918C21.8889 17.1363 22.087 17.4092 22.1711 17.7731C22.4472 18.8768 21.2165 19.7804 20.2499 19.1558C20.0098 18.9981 19.9798 18.895 19.8477 18.7556C20.1419 17.5427 20.5201 16.2085 20.8503 14.9774C20.9583 14.565 21.0664 14.1223 21.1925 13.722C21.3126 13.3157 21.4146 12.873 21.5227 12.4606C21.6307 12.0482 21.7628 11.6177 21.8649 11.2053C21.9549 10.7989 22.075 10.3441 22.1951 9.94992C22.3092 9.56179 22.3692 9.10089 22.6033 8.82799C22.6394 8.76128 22.6694 8.72489 22.7174 8.67638C22.7354 8.65818 22.7654 8.6218 22.7774 8.61573C22.8435 8.55509 22.8015 8.58541 22.8495 8.56722C22.8855 8.50657 22.9215 8.48838 22.9756 8.47018C23.0176 8.4156 22.9876 8.44593 23.0476 8.40347C23.0656 8.39135 23.0896 8.37922 23.1136 8.36709C23.1677 8.33677 23.1917 8.30644 23.2697 8.29431C23.3358 8.25186 23.6179 8.15483 23.702 8.20335C23.756 8.14877 23.696 8.17909 23.798 8.16696C23.8101 8.16696 23.8761 8.17302 23.8881 8.17302C23.9601 8.17909 24.0262 8.17909 24.0922 8.18515L24.3024 8.23973C24.5305 8.31251 24.5485 8.33677 24.5905 8.36709C24.5905 8.36709 24.5965 8.37315 24.6025 8.37922C24.7346 8.4156 24.9868 8.65818 25.0588 8.74915C25.1008 8.79767 25.1128 8.81586 25.1429 8.85831C25.1909 8.92502 25.1849 8.91289 25.2029 8.99173C25.2929 9.05844 25.419 9.45263 25.389 9.58605C25.413 9.62244 25.407 9.55573 25.419 9.67095C25.419 9.68308 25.413 9.74979 25.413 9.76798C25.407 9.84076 25.407 9.89534 25.395 9.97418L25.2449 10.4593L25.0888 10.714C25.0648 10.7383 25.0588 10.7383 25.0468 10.7504L24.9748 10.8353C24.9267 10.902 24.9087 10.902 24.8547 10.9506C24.8307 10.9748 24.8187 10.9869 24.7886 11.0051C24.7346 11.0476 24.7646 11.0233 24.7286 11.0355C24.6926 11.0779 24.6746 11.1022 24.6205 11.1022C24.5485 11.1749 24.3504 11.2659 24.2123 11.272C24.0142 11.3569 23.5279 11.3266 23.2937 11.2174L23.1737 11.1749C23.0956 11.2295 23.0596 11.3266 23.0296 11.4297C23.0776 11.4721 23.0956 11.466 23.1256 11.5085L23.642 11.6298C24.1042 11.7329 24.2783 11.4782 24.4825 11.648C24.7286 11.8542 25.0348 11.9573 25.377 11.9755L25.395 11.6601C25.0288 11.5995 25.0468 11.5873 24.7346 11.4418L24.7766 11.4115L25.0468 11.2174C25.0528 11.2174 25.0648 11.2053 25.0648 11.2113C25.0708 11.2174 25.0828 11.2053 25.0888 11.1992C25.1008 11.1446 25.0948 11.1689 25.1489 11.1264C25.1969 11.0718 25.2269 11.0476 25.2809 10.9869C25.299 10.9627 25.323 10.9202 25.341 10.902C25.407 10.8171 25.359 10.8717 25.419 10.8414L25.437 10.7747C25.4731 10.6959 25.4851 10.7019 25.5151 10.6291C25.5271 10.6049 25.5391 10.5685 25.5511 10.5503C25.6111 10.429 25.5511 10.5139 25.6111 10.4715L25.7132 10.1015C25.7072 10.0712 25.7072 10.0894 25.7072 10.047C25.7072 10.0227 25.7132 9.98024 25.7192 9.95598C25.7312 9.88321 25.7312 9.85895 25.7312 9.79831C25.7312 9.74979 25.7372 9.65276 25.7372 9.59211C25.7372 9.51328 25.7132 9.48295 25.7312 9.39805C25.8453 9.42231 25.9293 9.4405 26.0014 9.51328C26.3256 9.65882 26.6558 10.2592 26.5357 10.6352C26.5597 10.6898 26.5357 10.7626 26.5117 10.8353C26.5117 10.8414 26.4817 10.9445 26.4817 10.9445C26.4817 11.0537 26.4276 10.9809 26.5297 11.0294C27.2801 10.9748 27.7904 11.557 27.5803 12.2362C27.4182 12.1938 27.2981 12.1635 27.1361 12.1513C27.01 12.1392 26.8719 12.1574 26.7578 12.1453L26.3736 12.218C26.3136 12.2484 26.2055 12.2726 26.1395 12.2969C26.0734 12.3272 25.9593 12.4 25.8993 12.3939C25.8333 12.4606 25.8513 12.4364 25.7792 12.4788C25.7312 12.5152 25.7252 12.5273 25.6532 12.5455C25.6231 12.6001 25.5751 12.6365 25.5211 12.6486C25.4851 12.6911 25.455 12.7153 25.407 12.7638C25.401 12.7699 25.359 12.8184 25.347 12.8245C25.2809 12.8791 25.347 12.8366 25.2809 12.8609L25.2329 12.9579C25.1909 13.0064 25.1669 13.0307 25.1429 13.0671C25.1188 13.0974 25.1188 13.1035 25.0948 13.1216C25.0648 13.152 25.0828 13.1398 25.0528 13.152C25.0228 13.2733 24.8547 13.5158 24.8007 13.6796C24.7286 13.8979 24.7106 14.1162 24.6806 14.3345L24.2963 14.3952L24.0502 14.474C24.0142 14.5043 23.9842 14.5347 23.9241 14.5286C23.8521 14.6074 23.8521 14.5892 23.768 14.6438C23.732 14.6681 23.726 14.6802 23.696 14.7045C23.6179 14.7651 23.678 14.7287 23.6059 14.753C23.5879 14.8015 23.5519 14.8318 23.5099 14.8561C23.4739 14.9289 23.4558 14.9228 23.4138 14.9834C23.3958 15.0077 23.3838 15.032 23.3718 15.0502C23.3298 15.1047 23.3538 15.0744 23.3178 15.0987L23.2757 15.2078C23.1737 15.4383 23.1497 15.5535 23.0956 15.8143C23.1016 15.8749 23.0836 15.8749 23.1076 15.9356L23.3898 15.9477L23.4318 15.7961C23.4198 15.7476 23.4138 15.8385 23.4258 15.7172C23.4258 15.6991 23.4378 15.6505 23.4438 15.6323C23.4618 15.5717 23.4799 15.5414 23.4979 15.4929C23.5279 15.414 23.5699 15.2988 23.636 15.2381L23.774 15.0562C23.798 15.038 23.8161 15.0138 23.8401 14.9956C23.8521 14.9895 23.8701 14.9774 23.8821 14.9652L23.9121 14.9531C23.9481 14.9046 24.0382 14.8379 24.0982 14.8379C24.1523 14.7894 24.1042 14.8197 24.1823 14.7833C24.1943 14.7712 24.2303 14.7591 24.2543 14.753C24.3264 14.7287 24.3624 14.7166 24.4284 14.7105C24.7826 14.5711 25.419 14.8197 25.6171 15.0987C25.6772 15.1472 25.6412 15.129 25.7072 15.1593L25.8453 15.0441C25.8873 15.0016 25.8933 15.0077 25.9293 14.9471C25.5511 14.5892 25.5871 14.5832 25.0048 14.3891C25.0228 13.9949 25.1909 13.4491 25.431 13.2126L25.6472 12.9822C25.6832 12.9458 25.6832 12.9276 25.7372 12.9155C25.7852 12.8609 25.7972 12.8487 25.8693 12.8002C25.8993 12.782 25.9113 12.7699 25.9413 12.7578C25.9894 12.7275 25.9593 12.7456 26.0074 12.7335C26.0854 12.6425 26.4096 12.5334 26.5357 12.5273C26.5777 12.5031 26.5357 12.5152 26.6017 12.497C26.6257 12.4909 26.6257 12.4909 26.6498 12.4909C26.7038 12.4849 26.7398 12.4788 26.7878 12.4788C28.697 12.4424 29.3634 14.3224 28.6189 15.4989C28.2227 16.1175 27.7544 16.2085 27.6404 16.3176C27.6884 16.4268 27.7964 16.5117 27.8685 16.6148C27.9645 16.7361 27.9946 16.8028 28.0546 16.9362C28.4148 17.7549 28.0486 18.6828 27.3042 19.0891C27.2441 19.0466 27.1 18.8283 27.028 18.7495C26.6257 18.2947 26.2475 18.1794 25.7132 18.0157C25.5991 18.0399 25.425 17.9914 25.2929 17.9914C25.1489 17.9914 25.0168 18.0278 24.8907 18.0157C24.8187 17.5912 24.8127 17.1727 25.0648 16.7482C25.1308 16.639 25.2509 16.5117 25.299 16.4147C25.2209 16.354 25.1489 16.257 25.0708 16.2145C24.8667 16.3965 24.6626 16.7725 24.5845 17.0999C24.4404 17.6579 24.5905 17.9368 24.5725 18.1188C24.4224 18.1552 24.0202 18.3492 23.9601 18.4645L24.1463 18.7131C24.3804 18.4948 24.9447 18.2825 25.2869 18.325C27.2561 18.3068 28.0306 20.8114 26.5117 21.9333C26.1455 22.2002 25.431 22.4428 25.0048 22.279C24.9147 21.9455 24.9868 22.0001 24.7946 21.6301C24.7526 21.5452 24.6926 21.4603 24.6085 21.3693C24.5485 21.2966 24.4224 21.1935 24.3744 21.1328C24.5005 20.9933 24.9267 20.9812 25.1669 21.0237L25.2389 20.7204C24.8127 20.5688 24.2603 20.769 24.0382 20.9266C23.708 21.151 23.4739 21.4239 23.3298 21.9758L23.642 22.0425C23.792 21.6241 23.78 21.6119 24.0442 21.3269C24.2243 21.3815 24.4104 21.618 24.4825 21.7393C24.5785 21.8909 24.6446 22.0486 24.6746 22.2851C24.8187 23.5162 23.2757 24.2015 22.4532 23.2736C22.2491 23.0431 22.2611 22.9158 22.1771 22.7824L21.8949 22.8612C21.8949 23.0492 22.075 23.3342 22.2011 23.4798C22.2431 23.5344 22.2971 23.5708 22.3452 23.6314C22.123 24.8079 20.7302 25.4993 19.6376 24.8625C19.1393 24.5775 18.8271 24.1105 18.725 23.6071C18.665 23.2615 18.683 23.0492 18.785 22.6671C18.8511 22.4185 19.0552 22.0122 19.2293 21.9273ZM25.0888 8.29431L24.8727 8.14877C24.6566 8.00928 24.6025 8.02141 24.5365 7.98503C24.5065 7.96077 24.5065 7.96077 24.4945 7.94257L24.4164 7.93044L24.1403 7.86374L23.9481 7.83948C23.9421 7.83948 23.9301 7.85161 23.9301 7.84554L23.5879 7.86374C23.5279 7.88799 23.1557 7.98503 23.1377 7.97896C23.0836 8.03354 23.1437 7.99109 23.0716 8.03354L23.0116 8.0578C22.9275 8.09419 22.9575 8.10025 22.8735 8.12451C22.8375 8.1609 22.7834 8.19728 22.7414 8.20335L22.5013 8.42773L22.4112 8.54296L22.2311 8.76734C22.2011 8.88863 22.093 9.05237 21.973 9.53147L21.2885 12.0907C20.9824 13.2308 20.6822 14.3709 20.382 15.5111L18.6169 22.1274C18.5869 22.2305 18.5929 22.273 18.5449 22.3093C18.5089 22.4791 18.4308 22.6429 18.3888 22.8491C18.3528 23.0371 18.3528 23.1644 18.3528 23.3342C18.3888 24.7836 20.0038 25.9723 21.5527 25.1778C21.997 24.9474 22.4052 24.5168 22.6213 23.8437C22.9876 23.9468 23.0776 24.0559 23.4859 24.0377C23.744 24.0317 23.9902 23.9528 24.1583 23.8618C24.7106 23.5586 24.8547 23.1948 25.0108 22.655L25.1128 22.6368C25.335 22.6368 25.341 22.6671 25.6532 22.6247C26.2115 22.5459 26.7338 22.2669 27.106 21.806C27.3642 21.4967 27.5863 21.054 27.6283 20.581C27.6824 19.8532 27.5203 19.7562 27.4602 19.3923C27.5203 19.3195 27.6764 19.2468 27.7844 19.1558C28.3728 18.6706 28.6309 17.9005 28.4628 17.1424C28.3848 16.7785 28.2587 16.6633 28.1447 16.4329C28.1867 16.3661 28.3068 16.2994 28.3788 16.2449C28.9972 15.7476 29.3094 15.0077 29.2253 14.1951C29.1533 13.4916 28.739 12.8548 28.1687 12.497C28.1266 12.4727 28.0786 12.4485 28.0246 12.4182C27.7604 12.2787 28.0186 12.2847 27.9345 11.7632C27.8505 11.1992 27.4663 10.8535 26.8719 10.7019C26.8899 10.2168 26.8479 9.99843 26.6137 9.64669C26.3856 9.29495 26.0914 9.15547 25.5991 9.02205C25.5511 8.8947 25.4671 8.74309 25.383 8.62786C25.2809 8.48231 25.1128 8.3307 25.0888 8.29431Z" fill="#FEFEFE"/>
<path fill-rule="evenodd" clip-rule="evenodd" d="M14.5706 21.1086C14.6306 21.054 14.7026 21.0115 14.7507 20.9388L14.5405 20.7144C14.4085 20.7993 14.3244 20.9024 14.1803 20.9509C13.8261 21.145 13.2077 21.0964 12.8295 20.7568C12.5173 20.49 12.3072 20.0655 12.4093 19.5257C12.5413 18.8647 13.2017 18.4341 13.646 18.513C13.7241 18.7677 13.7241 19.0224 13.64 19.3317L13.9462 19.4348C14.0843 18.8829 14.0422 18.5554 13.8501 18.1673C13.7421 17.949 13.3458 17.4456 12.9136 17.391L12.8295 17.6821C13.0516 17.7731 13.4239 17.9914 13.4539 18.1794C13.3578 18.2158 13.2498 18.2219 13.1357 18.2643C13.0096 18.3068 12.9496 18.3371 12.8415 18.4038C12.6674 18.5069 12.5954 18.5736 12.4633 18.707L12.3372 18.8526C11.7909 18.7313 11.2506 18.0703 11.1125 17.5063C11.0344 17.1909 11.0104 16.8634 11.1125 16.4753C11.3646 15.505 12.3372 14.85 13.3698 15.0259C13.7601 15.0926 14.0723 15.2563 14.3244 15.4625C14.4925 15.6081 14.6546 15.7961 14.7687 15.9901C14.8167 16.069 14.8167 16.1175 14.8707 16.1903C14.9608 16.1599 15.0809 16.1175 15.1289 16.0508C15.1109 15.9174 14.9008 15.596 14.7807 15.4989C14.8467 15.3109 15.1289 15.0987 15.273 14.5771C15.345 14.3103 15.381 13.7523 15.285 13.5704L14.9668 13.6371C14.9908 13.7463 15.0208 13.7281 15.0328 14.0071C15.0448 14.4558 14.8527 14.9107 14.5826 15.2078C14.3424 15.1532 14.0242 14.7227 13.1657 14.6741C12.9196 14.662 12.7275 14.6802 12.5173 14.7348C12.1931 14.8136 12.0611 14.9471 11.893 14.9046C11.8329 14.662 11.4907 14.1526 11.7789 13.4491C11.983 12.9579 12.3672 12.5516 12.7515 12.4788C12.7815 12.4545 12.7575 12.4667 12.7995 12.4485C12.8295 12.4364 12.8235 12.4424 12.8595 12.4364L13.0096 12.3636C12.9856 12.2362 12.5834 11.8663 12.5654 11.1204C12.5594 10.993 12.6014 10.9142 12.5954 10.805C12.5834 10.5988 12.7094 10.3623 12.7875 10.1925C12.8175 10.1197 12.8475 10.0894 12.8775 10.0227C12.8896 9.99843 12.8956 9.97417 12.9136 9.94991C12.9676 9.87108 12.9376 9.91959 12.9736 9.89533C13.0156 9.80437 13.0757 9.76192 13.1597 9.68308C13.1957 9.64669 13.2137 9.62243 13.2498 9.58605C13.2798 9.55572 13.3218 9.53753 13.3578 9.50721C13.4059 9.43443 13.4719 9.40411 13.5499 9.37379L13.634 9.34347C13.664 9.28282 13.7781 9.25856 13.8441 9.23431C14.1263 9.1494 14.3424 9.10089 14.6786 9.11302C15.0388 9.13121 15.6212 9.36772 15.8013 9.59211C16.0534 9.7983 16.0474 9.7983 16.2035 10.0409C16.2636 10.1318 16.2756 10.15 16.2876 10.2289L16.3236 10.2895C16.3776 10.4169 16.4977 10.7322 16.4617 10.8475L16.4977 11.1507C16.4797 11.3266 16.4137 11.6298 16.3476 11.8056C16.2035 12.1574 16.3716 11.9451 15.7112 11.9451C15.5792 11.9451 15.333 11.9633 15.2189 11.9876C15.1589 12.1149 15.1949 12.1089 15.255 12.3333C15.4471 12.3757 15.6032 12.1938 16.0234 12.2847C16.5517 12.406 16.8879 12.8124 16.996 13.3096C17.0801 13.722 16.966 13.7827 16.8759 14.1829L17.1521 14.3224C17.3862 13.7645 17.4343 13.3339 17.1581 12.8063L16.912 12.4303C16.8459 12.3878 16.8219 12.3515 16.7619 12.309C16.7319 12.2787 16.7319 12.2847 16.6898 12.2544C16.6118 12.1998 16.6538 12.2423 16.6118 12.1756L16.5517 12.1513C16.5998 12.024 16.6478 11.9694 16.6838 11.842C16.7259 11.7086 16.7439 11.5631 16.7979 11.4418L16.7859 11.4054C16.7799 11.3872 16.7799 11.3751 16.7799 11.3508L16.8099 10.9991C16.7439 10.6655 16.8279 10.7504 16.6418 10.1986L16.4737 9.84682C16.4197 9.71946 16.4677 9.79224 16.3476 9.69521C16.3056 9.66488 16.2456 9.56785 16.2276 9.53753L16.0234 9.3374C15.9154 9.29495 15.9334 9.19792 15.6092 9.0645C15.5311 9.03418 15.1169 8.85831 15.0989 8.84011C15.1049 8.71276 15.243 8.47018 15.309 8.42773L15.5612 8.24579C15.6392 8.14876 15.8073 8.15483 15.9454 8.13057C16.1495 8.10025 16.2456 8.19728 16.4557 8.23973C16.5337 8.30037 16.5578 8.32463 16.6718 8.33676C16.6958 8.25186 16.6898 8.13057 16.7319 8.04567C16.7499 8.00928 16.7319 8.03354 16.7559 8.00322C16.7799 7.96683 16.7739 7.97289 16.7979 7.9547C16.8639 7.66967 17.3742 7.31793 17.6144 7.31186C17.7044 7.25122 17.8545 7.29367 17.9686 7.29367L18.1127 7.33006C18.0707 7.41496 18.0106 7.48167 17.9506 7.57264C17.8966 7.6636 17.8425 7.76064 17.8125 7.86373L17.6864 8.30037C17.6084 8.88257 17.7525 9.19185 17.9386 9.57392C17.7585 9.67095 17.3682 9.48901 17.2602 9.45869C17.2001 9.56785 17.1521 9.59817 17.1161 9.73766C17.3862 9.88321 17.6744 9.94385 17.9626 9.91353C18.1907 9.88927 18.1367 9.87108 18.3048 10.0166C18.3949 10.0894 18.5029 10.1561 18.605 10.2289C18.7551 10.2835 18.8271 10.3441 18.9832 10.3866C19.1393 10.429 19.2594 10.4472 19.4215 10.4775L19.4515 10.1622C18.9412 10.0591 18.8631 10.0227 18.5029 9.75585C18.4669 9.72553 18.4489 9.71946 18.4189 9.68308L18.3889 9.64669C18.3468 9.58605 18.3708 9.62243 18.3588 9.57998C18.2508 9.51327 18.1067 9.21611 18.0647 9.07056C18.0106 8.8765 17.9446 8.64605 17.9986 8.42166C17.9866 8.34889 18.0226 8.23367 18.0466 8.1427C18.1007 7.97896 18.1787 7.79702 18.2688 7.67573C18.3408 7.5787 18.4669 7.42709 18.569 7.35432C18.713 7.24515 19.1573 6.98438 19.3494 7.0329C19.3854 7.0147 19.3314 7.02077 19.4215 7.00864C19.4215 7.00864 19.4875 7.00258 19.4935 7.00258C19.5535 7.00258 19.6076 7.00864 19.6616 7.00864L19.8898 7.04503L20.1779 7.15419C20.388 7.2027 20.6942 7.50593 20.8023 7.65754C20.8984 7.78489 21.1145 8.18515 21.0725 8.39134C21.0965 8.42773 21.0785 8.37921 21.0965 8.45805C21.1025 8.47624 21.1025 8.53083 21.1025 8.54902C21.1085 8.61573 21.0965 8.68244 21.0905 8.74915C20.9164 9.5254 20.7002 10.338 20.4901 11.1204C19.9378 13.1156 19.4155 15.1775 18.8811 17.1848C18.7791 17.5669 18.683 18.0339 18.563 18.3977C18.2147 18.5433 17.8305 18.6464 17.3802 18.4159C16.1495 17.7852 16.6478 15.9113 18.0226 15.978L18.0587 15.6809C17.8665 15.6141 17.5183 15.7051 17.3742 15.7658C15.8013 16.4207 16.1555 18.6585 17.7525 18.8586C17.9146 18.8768 17.9986 18.8768 18.1247 18.8586C18.2328 18.8526 18.3708 18.8041 18.4549 18.8041L17.8185 21.2177C17.7645 21.1753 17.6804 20.9145 17.5543 20.7265C17.1581 20.1564 16.6298 19.8229 15.8853 19.7562L15.8493 20.0655C16.3596 20.1989 16.7439 20.211 17.1761 20.7568C17.4223 21.0661 17.6264 21.4846 17.5964 21.994C17.6024 22.2184 17.4403 22.7035 17.3262 22.8855C17.1821 23.122 17.02 23.2978 16.8459 23.4313C15.4291 24.4865 13.4299 23.1402 13.9822 21.3572C14.1983 21.3451 14.4265 21.1753 14.5706 21.1086ZM17.9086 22.2002C17.8966 22.0668 18.569 19.6167 18.665 19.2589L19.8417 14.8197C19.9678 14.3285 20.0879 13.8251 20.238 13.346C20.382 12.8669 20.4721 12.3454 20.6282 11.8663C20.7723 11.3993 20.8683 10.8657 21.0064 10.3926L21.0725 10.1379C21.2826 9.30708 21.5527 8.80373 21.3366 8.0396C21.3066 7.93044 21.2826 7.86373 21.2406 7.77883C21.1985 7.69393 21.1205 7.59689 21.1205 7.53019C21.0244 7.43922 21.0484 7.43315 20.9524 7.33006C20.9284 7.3058 20.9344 7.31793 20.9164 7.29367C20.8924 7.26335 20.9044 7.28154 20.8924 7.24515C20.8383 7.21483 20.7663 7.13599 20.7002 7.08748C20.6222 7.02683 20.5562 6.99045 20.4841 6.93587C20.226 6.81458 20.0338 6.72361 19.7096 6.68722L19.5295 6.66296C19.4935 6.68116 19.5475 6.66903 19.4755 6.68116C19.4575 6.68116 19.4215 6.68116 19.4035 6.68116C19.3374 6.68722 19.3134 6.69329 19.2474 6.69935C19.1093 6.7418 19.0793 6.71148 18.8031 6.8267C18.2147 7.08141 18.683 7.13599 17.9446 6.96012L17.5784 6.97225C17.5483 6.99045 17.5063 6.99045 17.4643 7.00864C17.4163 7.02077 17.3802 7.03896 17.3262 7.06322C17.2302 7.09961 17.1581 7.13599 17.0681 7.17238C17.02 7.2209 17.02 7.20877 16.972 7.24515C16.972 7.24515 16.93 7.28761 16.924 7.28761C16.8639 7.33006 16.912 7.3058 16.8579 7.32399L16.7138 7.48167C16.7018 7.4938 16.7018 7.50593 16.6898 7.51806C16.6298 7.5787 16.6838 7.53019 16.6418 7.55444C16.6418 7.56051 16.4737 7.8698 16.4677 7.88193L16.2756 7.82128C16.0655 7.75457 16.1255 7.83341 15.9214 7.80309C15.8613 7.81522 15.7713 7.80915 15.6812 7.83341C15.6092 7.84554 15.5371 7.90012 15.4531 7.88799L15.243 8.0396C15.237 8.0396 15.231 8.04567 15.225 8.04567V8.05173C15.1529 8.16696 15.1049 8.1427 15.0208 8.25792C14.9368 8.36102 14.9608 8.45805 14.8407 8.54295L14.7327 8.80373C14.6306 8.82192 14.4925 8.77947 14.3905 8.7734C14.1563 8.76734 13.67 8.96747 13.562 8.98566C13.556 8.98566 13.5439 8.99779 13.5439 8.99173L13.5019 9.02205C13.4779 9.03418 13.4779 9.02811 13.4419 9.05237C13.3999 9.08269 13.3818 9.11302 13.3218 9.14334C12.9856 9.34347 13.1417 9.22824 12.8715 9.50114C12.8175 9.54966 12.7515 9.58605 12.7215 9.6285C12.6914 9.67095 12.6554 9.77404 12.6194 9.83469C12.4873 10.0773 12.4693 9.99843 12.3312 10.4957C12.1931 10.993 12.2412 11.369 12.3792 11.8117C12.4153 11.9269 12.5113 12.1392 12.5173 12.1998C12.4333 12.2969 12.2772 12.2241 11.905 12.6547C10.8363 13.8736 11.6588 15.0441 11.6468 15.1108C11.6108 15.1714 11.3887 15.3473 11.3046 15.4443C10.8543 15.9598 10.7703 16.3965 10.7162 17.0332C10.7703 17.955 11.2326 18.7495 12.1571 19.1558C12.031 19.6955 11.953 20.114 12.3012 20.6598C12.4213 20.8478 12.5894 21.0176 12.7995 21.151C13.0997 21.3451 13.2858 21.3451 13.634 21.4057C13.1537 23.3827 15.333 24.8746 16.972 23.7527C17.5003 23.3949 17.7345 23.0068 17.9086 22.2002Z" fill="#FEFEFE"/>
<path fill-rule="evenodd" clip-rule="evenodd" d="M17.8125 30.4236C17.9445 30.3629 18.2447 30.2477 18.3048 30.1507L17.1761 29.6716C16.4436 29.3441 15.6392 29.0287 14.9187 28.7013C14.6966 28.5982 13.9642 28.2586 13.766 28.2222C13.676 28.586 13.8861 28.6588 14.0422 28.7376C14.1323 28.7862 14.1202 28.8347 14.1623 28.9135C14.4204 29.4593 14.8947 30.1204 15.351 30.5509C15.9634 31.1452 17.1641 30.7025 17.8125 30.4236Z" fill="#FEFEFE"/>
<path fill-rule="evenodd" clip-rule="evenodd" d="M19.7876 27.3126C20.0698 27.0457 19.9317 26.8517 19.9858 26.5727C20.1839 26.6212 20.2079 26.5909 20.2979 26.13L14.5225 24.5714C14.4805 24.6745 14.4024 24.9171 14.4324 25.0081C14.4805 25.0869 16.8038 26.0269 17.104 26.1724L19.7876 27.3126Z" fill="#FEFEFE"/>
<path fill-rule="evenodd" clip-rule="evenodd" d="M19.0853 29.8293C19.2293 29.6898 19.3854 29.3441 19.2413 29.1622C19.1873 29.0955 18.641 28.8832 18.5269 28.8347C18.1487 28.677 14.2824 27.0032 14.0963 26.9547C13.9702 27.1003 13.8441 27.4459 13.9462 27.6218C13.9702 27.6461 18.683 29.7019 19.0853 29.8293Z" fill="#FEFEFE"/>
<path fill-rule="evenodd" clip-rule="evenodd" d="M19.3554 28.5315C19.5415 28.3314 19.6076 28.107 19.5115 27.8462C18.677 27.4945 17.8485 27.1245 17.026 26.7849C16.8219 26.7 14.6486 25.7479 14.5165 25.7236C14.3004 25.8813 14.2704 26.1663 14.4084 26.3483C14.5045 26.4756 14.9007 26.603 15.0688 26.6818L17.9266 27.9311C18.1847 28.0403 19.1753 28.5072 19.3554 28.5315Z" fill="#FEFEFE"/>
<path fill-rule="evenodd" clip-rule="evenodd" d="M12.2291 8.02742C12.1331 7.96678 12.0791 7.90613 12.037 7.81516C11.965 7.80303 11.995 7.80303 11.977 7.76665C11.7669 7.58471 10.7102 6.45672 10.5782 6.4082C10.5301 6.44459 10.5301 6.46885 10.4821 6.51736C10.284 6.68717 10.4041 6.68717 10.7162 7.01465L11.7669 8.08807C11.8029 8.12445 11.8389 8.16084 11.8809 8.19723C11.899 8.20936 11.929 8.23361 11.935 8.23968C11.971 8.28819 11.953 8.26394 11.977 8.31852C12.0971 8.33671 12.4693 8.82187 12.5113 8.84613C12.6074 8.8158 12.5774 8.82187 12.6434 8.71877C12.7214 8.60355 12.7335 8.68238 12.7875 8.58535C12.7635 8.53684 12.2952 8.14871 12.2291 8.02742Z" fill="#FEFEFE"/>
<path fill-rule="evenodd" clip-rule="evenodd" d="M10.0438 13.1641C9.85771 13.0913 9.51551 13.0185 9.31139 12.9639C9.06524 12.8972 8.81309 12.8305 8.56694 12.7638L7.25815 12.406C7.23414 12.3999 7.19212 12.3878 7.1681 12.3878C7.1621 12.3878 7.15609 12.3878 7.15009 12.3878H7.11407C7.05403 12.4727 7.01801 12.5212 7 12.7092L9.92375 13.5097C10.0078 13.5158 9.9958 13.4612 10.0138 13.3703C10.0318 13.2793 10.0498 13.2368 10.0438 13.1641Z" fill="#FEFEFE"/>
<path fill-rule="evenodd" clip-rule="evenodd" d="M32.6834 12.3938C32.5874 12.3696 32.0591 12.5394 31.927 12.5697C31.6628 12.6425 31.4227 12.7092 31.1885 12.7698C30.6782 12.9033 30.1799 13.0488 29.7177 13.1701C29.7237 13.2793 29.7597 13.4248 29.8197 13.5158L32.7495 12.7274C32.7615 12.6243 32.7195 12.4909 32.6834 12.3938Z" fill="#FEFEFE"/>
<path fill-rule="evenodd" clip-rule="evenodd" d="M32.7675 19.3134L29.8077 18.525C29.6516 18.9617 29.6936 18.8586 30.1859 18.992C30.9664 19.2042 31.927 19.4893 32.6774 19.6651L32.7675 19.3134Z" fill="#FEFEFE"/>
<path fill-rule="evenodd" clip-rule="evenodd" d="M9.9658 18.5372C9.84573 18.5129 9.68964 18.5857 9.56956 18.6221L7.00603 19.3135C6.99402 19.3862 7.06006 19.5803 7.07807 19.6531C7.1321 19.6591 9.91777 18.9132 10.0438 18.8586L9.9658 18.5372Z" fill="#FEFEFE"/>
<path fill-rule="evenodd" clip-rule="evenodd" d="M29.1353 6.40222C28.9132 6.69332 27.0881 8.42776 26.992 8.59757L27.2382 8.82802L28.3188 7.74854C28.4869 7.5848 29.3394 6.74183 29.3994 6.63267C29.3394 6.57203 29.2313 6.44467 29.1353 6.40222Z" fill="#FEFEFE"/>
<path fill-rule="evenodd" clip-rule="evenodd" d="M22.3632 5.94734V5.98373L22.6994 6.06863L23.4859 3.09097L23.1497 3L22.3632 5.94734Z" fill="#FEFEFE"/>
<path fill-rule="evenodd" clip-rule="evenodd" d="M27.2441 23.2069C27.1661 23.2494 27.04 23.3767 26.998 23.4495L28.0786 24.5472C28.4088 24.8807 28.8051 25.2749 29.1533 25.6327C29.2073 25.6024 29.3634 25.4568 29.3994 25.378L27.2441 23.2069Z" fill="#FEFEFE"/>
<path fill-rule="evenodd" clip-rule="evenodd" d="M17.2301 6.05655C17.3202 5.99591 17.3982 6.08687 17.3802 5.88068L17.1401 4.97707L16.6178 3.01218C16.5037 3.00612 16.4016 3.04857 16.2936 3.07889C16.2636 3.18199 16.7258 4.8194 16.7799 5.03772L16.8699 5.38339C16.8999 5.49862 16.96 5.61385 16.954 5.71694C16.996 5.77759 17.002 5.81397 17.02 5.89281C17.038 5.97771 17.038 5.98378 17.062 6.05049C17.2001 6.08687 17.1161 6.03229 17.2301 6.05655Z" fill="#FEFEFE"/>
</g>
<defs>
<clipPath id="clip0_2_2">
<rect width="98" height="32" fill="white"/>
</clipPath>
</defs>
</svg>
