<svg width="64" height="70" viewBox="0 0 64 70" fill="none" xmlns="http://www.w3.org/2000/svg">
<path d="M22.9374 46.7355C34.1717 49.7762 45.7191 43.0417 48.7293 31.6935C51.7395 20.3453 45.0726 8.68075 33.8383 5.64001C22.6041 2.59928 11.0566 9.3338 8.04643 20.682C5.03622 32.0302 11.7031 43.6947 22.9374 46.7355Z" fill="#A0DB21"/>
<path fill-rule="evenodd" clip-rule="evenodd" d="M30.3746 47.0106C30.8667 46.1219 32.7902 45.4893 34.1472 45.655C34.9673 45.7454 35.519 46.1219 35.7278 46.0165L35.8471 45.7303L35.9962 45.3839C34.2963 44.465 32.1938 44.691 30.6132 45.7152C30.4491 45.8357 30.2106 46.0767 30.0316 46.1069L31.6271 40.127C31.7912 40.2023 32.0298 40.4734 32.2236 40.6241C33.0586 41.2266 33.9384 41.4977 34.9375 41.4224C36.0708 41.332 37.0549 40.7596 37.711 39.9312C38.5312 38.8768 38.7548 37.476 38.4119 36.3161C38.1435 35.4124 37.4277 34.2977 36.3541 33.8609L36.0111 34.5689C36.9804 35.1111 37.4724 35.7889 37.6812 36.6927C38.3671 39.4341 35.3103 41.6784 32.9095 40.127C32.3131 39.7354 32.2385 39.4793 31.9105 39.1328C32.6411 36.1203 33.5805 32.8065 34.4007 29.7488C34.6691 28.7245 34.9375 27.625 35.2506 26.6308C35.5489 25.6216 35.8024 24.522 36.0708 23.4978C36.3392 22.4735 36.6672 21.4041 36.9207 20.3798C37.1444 19.3706 37.4426 18.2409 37.7408 17.2618C38.0242 16.2978 38.1733 15.1531 38.7548 14.4752C38.8443 14.3095 38.9189 14.2192 39.0381 14.0987C39.0829 14.0535 39.1574 13.9631 39.1873 13.948C39.3513 13.7974 39.2469 13.8727 39.3662 13.8275C39.4557 13.6769 39.5451 13.6317 39.6793 13.5865C39.7837 13.451 39.7092 13.5263 39.8583 13.4208C39.903 13.3907 39.9627 13.3606 40.0223 13.3305C40.1565 13.2552 40.2161 13.1798 40.41 13.1497C40.574 13.0443 41.2749 12.8033 41.4836 12.9238C41.6178 12.7882 41.4687 12.8635 41.7222 12.8334C41.752 12.8334 41.9161 12.8485 41.9459 12.8485C42.1248 12.8635 42.2888 12.8635 42.4529 12.8786L42.9748 13.0142C43.5414 13.1949 43.5861 13.2552 43.6905 13.3305C43.6905 13.3305 43.7054 13.3455 43.7203 13.3606C44.0484 13.451 44.6747 14.0535 44.8536 14.2794C44.958 14.3999 44.9878 14.4451 45.0624 14.5506C45.1817 14.7162 45.1668 14.6861 45.2115 14.8819C45.4352 15.0476 45.7483 16.0267 45.6737 16.3581C45.7334 16.4484 45.7185 16.2828 45.7483 16.5689C45.7483 16.5991 45.7334 16.7648 45.7334 16.81C45.7185 16.9907 45.7185 17.1263 45.6887 17.3221L45.3159 18.5271L44.9282 19.1597C44.8685 19.22 44.8536 19.22 44.8238 19.2501L44.6449 19.461C44.5256 19.6267 44.4808 19.6267 44.3466 19.7472C44.287 19.8074 44.2572 19.8376 44.1826 19.8827C44.0484 19.9882 44.1229 19.9279 44.0335 19.9581C43.944 20.0635 43.8993 20.1237 43.7651 20.1237C43.5861 20.3045 43.0941 20.5304 42.7511 20.5455C42.259 20.7564 41.0512 20.6811 40.4696 20.4099L40.1714 20.3045C39.9776 20.4401 39.8881 20.6811 39.8135 20.9371C39.9328 21.0426 39.9776 21.0275 40.0521 21.1329L41.3345 21.4342C42.4827 21.6903 42.9151 21.0576 43.4221 21.4794C44.0335 21.9915 44.794 22.2476 45.6439 22.2928L45.6887 21.5095C44.7791 21.3589 44.8238 21.3288 44.0484 20.9673L44.1528 20.8919L44.8238 20.4099C44.8387 20.4099 44.8685 20.3798 44.8685 20.3949C44.8834 20.4099 44.9133 20.3798 44.9282 20.3647C44.958 20.2292 44.9431 20.2894 45.0773 20.184C45.1966 20.0484 45.2711 19.9882 45.4053 19.8376C45.4501 19.7773 45.5097 19.6719 45.5545 19.6267C45.7185 19.4158 45.5992 19.5514 45.7483 19.476L45.793 19.3104C45.8825 19.1145 45.9123 19.1296 45.9869 18.9489C46.0167 18.8886 46.0465 18.7982 46.0764 18.753C46.2255 18.4518 46.0764 18.6627 46.2255 18.5572L46.479 17.6384C46.464 17.5631 46.464 17.6083 46.464 17.5028C46.464 17.4426 46.479 17.3371 46.4939 17.2769C46.5237 17.0961 46.5237 17.0359 46.5237 16.8853C46.5237 16.7648 46.5386 16.5238 46.5386 16.3731C46.5386 16.1773 46.479 16.102 46.5237 15.8911C46.807 15.9514 47.0158 15.9966 47.1947 16.1773C47.9999 16.5388 48.8201 18.03 48.5218 18.9639C48.5815 19.0995 48.5218 19.2802 48.4622 19.461C48.4622 19.476 48.3876 19.7321 48.3876 19.7321C48.3876 20.0032 48.2534 19.8225 48.5069 19.943C50.3709 19.8074 51.6383 21.2534 51.1164 22.9405C50.7138 22.835 50.4156 22.7597 50.013 22.7296C49.6998 22.6995 49.3569 22.7446 49.0736 22.7145L48.1192 22.8953C47.9701 22.9706 47.7017 23.0308 47.5377 23.0911C47.3736 23.1664 47.0903 23.3472 46.9412 23.3321C46.7772 23.4978 46.8219 23.4375 46.643 23.543C46.5237 23.6333 46.5088 23.6635 46.3298 23.7087C46.2553 23.8442 46.136 23.9346 46.0018 23.9647C45.9123 24.0702 45.8378 24.1304 45.7185 24.2509C45.7036 24.266 45.5992 24.3865 45.5694 24.4015C45.4053 24.5371 45.5694 24.4317 45.4053 24.4919L45.286 24.7329C45.1817 24.8534 45.122 24.9137 45.0624 25.0041C45.0027 25.0794 45.0027 25.0944 44.9431 25.1396C44.8685 25.2149 44.9133 25.1848 44.8387 25.2149C44.7641 25.5162 44.3466 26.1187 44.2124 26.5254C44.0335 27.0676 43.9887 27.6099 43.9142 28.1522L42.9599 28.3028L42.3485 28.4986C42.259 28.5739 42.1845 28.6492 42.0353 28.6342C41.8564 28.83 41.8564 28.7848 41.6476 28.9203C41.5582 28.9806 41.5433 29.0107 41.4687 29.071C41.2749 29.2216 41.424 29.1312 41.245 29.1915C41.2003 29.312 41.1108 29.3873 41.0065 29.4475C40.917 29.6283 40.8723 29.6132 40.7679 29.7639C40.7231 29.8241 40.6933 29.8844 40.6635 29.9295C40.5591 30.0651 40.6188 29.9898 40.5293 30.05L40.4249 30.3212C40.1714 30.8936 40.1118 31.1798 39.9776 31.8274C39.9925 31.9781 39.9477 31.9781 40.0074 32.1287L40.7082 32.1588L40.8126 31.7823C40.7828 31.6618 40.7679 31.8877 40.7977 31.5864C40.7977 31.5413 40.8275 31.4208 40.8424 31.3756C40.8872 31.2249 40.9319 31.1496 40.9766 31.0291C41.0512 30.8333 41.1556 30.5471 41.3196 30.3965L41.6626 29.9446C41.7222 29.8994 41.7669 29.8392 41.8266 29.794C41.8564 29.7789 41.9011 29.7488 41.931 29.7187L42.0055 29.6885C42.095 29.568 42.3187 29.4024 42.4678 29.4024C42.602 29.2819 42.4827 29.3572 42.6765 29.2668C42.7064 29.2367 42.7958 29.2065 42.8555 29.1915C43.0344 29.1312 43.1239 29.1011 43.2879 29.086C44.1677 28.7396 45.7483 29.3572 46.2404 30.05C46.3895 30.1706 46.3 30.1254 46.464 30.2007L46.807 29.9145C46.9114 29.809 46.9263 29.8241 47.0158 29.6735C46.0764 28.7848 46.1658 28.7697 44.7194 28.2877C44.7641 27.3086 45.1817 25.953 45.7781 25.3656L46.3149 24.7932C46.4044 24.7028 46.4044 24.6576 46.5386 24.6275C46.6579 24.4919 46.6877 24.4618 46.8667 24.3413C46.9412 24.2961 46.971 24.266 47.0456 24.2359C47.1649 24.1605 47.0903 24.2057 47.2096 24.1756C47.4035 23.9497 48.2087 23.6785 48.5218 23.6635C48.6262 23.6032 48.5218 23.6333 48.6859 23.5882C48.7455 23.5731 48.7455 23.5731 48.8051 23.5731C48.9394 23.558 49.0288 23.543 49.1481 23.543C53.89 23.4526 55.5451 28.122 53.6961 31.0442C52.712 32.5806 51.5489 32.8065 51.2655 33.0776C51.3848 33.3488 51.6532 33.5597 51.8322 33.8157C52.0708 34.117 52.1453 34.2827 52.2944 34.614C53.1891 36.6475 52.2795 38.9521 50.4305 39.9613C50.2814 39.8559 49.9235 39.3136 49.7446 39.1178C48.7455 37.9881 47.8061 37.7019 46.479 37.2952C46.1956 37.3554 45.7632 37.2349 45.4352 37.2349C45.0773 37.2349 44.7492 37.3253 44.4361 37.2952C44.2572 36.2408 44.2422 35.2015 44.8685 34.1471C45.0325 33.876 45.3308 33.5597 45.4501 33.3187C45.2562 33.168 45.0773 32.927 44.8834 32.8216C44.3764 33.2735 43.8695 34.2073 43.6756 35.0207C43.3177 36.4065 43.6905 37.0994 43.6458 37.5513C43.273 37.6416 42.2739 38.1236 42.1248 38.4098L42.5871 39.0274C43.1686 38.4852 44.5703 37.958 45.4202 38.0634C50.3112 38.0182 52.2348 44.2391 48.4622 47.0257C47.5526 47.6884 45.7781 48.291 44.7194 47.8843C44.4957 47.0558 44.6747 47.1914 44.1975 46.2726C44.0931 46.0617 43.944 45.8508 43.7353 45.6249C43.5861 45.4441 43.273 45.188 43.1537 45.0374C43.4668 44.691 44.5256 44.6609 45.122 44.7663L45.301 44.0132C44.2422 43.6366 42.8704 44.1337 42.3187 44.5253C41.4985 45.0826 40.917 45.7604 40.5591 47.1311L41.3345 47.2968C41.7073 46.2575 41.6775 46.2274 42.3336 45.5194C42.7809 45.655 43.2432 46.2424 43.4221 46.5437C43.6607 46.9203 43.8247 47.3119 43.8993 47.8993C44.2572 50.9571 40.4249 52.6591 38.382 50.3545C37.875 49.7822 37.9049 49.4658 37.6961 49.1345L36.9953 49.3303C36.9953 49.7972 37.4426 50.5052 37.7558 50.8667C37.8601 51.0022 37.9943 51.0926 38.1136 51.2432C37.5619 54.1654 34.1024 55.8825 31.3886 54.301C30.1509 53.593 29.3755 52.4332 29.122 51.183C28.9729 50.3244 29.0176 49.7972 29.2711 48.8483C29.4352 48.2307 29.9422 47.2215 30.3746 47.0106ZM44.9282 13.1497L44.3914 12.7882C43.8545 12.4418 43.7203 12.4719 43.5563 12.3815C43.4818 12.3213 43.4818 12.3213 43.4519 12.2761L43.2581 12.246L42.5722 12.0803L42.095 12.02C42.0801 12.02 42.0503 12.0501 42.0503 12.0351L41.2003 12.0803C41.0512 12.1405 40.1267 12.3815 40.0819 12.3665C39.9477 12.502 40.0969 12.3966 39.9179 12.502L39.7688 12.5623C39.56 12.6527 39.6346 12.6677 39.4258 12.728C39.3364 12.8183 39.2022 12.9087 39.0978 12.9238L38.5013 13.4811L38.2777 13.7673L37.8303 14.3246C37.7558 14.6259 37.4873 15.0326 37.1891 16.2225L35.4892 22.579C34.7287 25.4107 33.9832 28.2425 33.2376 31.0743L28.8536 47.5077C28.7791 47.7638 28.794 47.8692 28.6747 47.9596C28.5852 48.3813 28.3914 48.788 28.287 49.3002C28.1975 49.7671 28.1975 50.0834 28.1975 50.5052C28.287 54.1052 32.2982 57.0574 36.1453 55.0842C37.2488 54.5118 38.2627 53.4424 38.7996 51.7704C39.7092 52.0265 39.9328 52.2976 40.9468 52.2524C41.588 52.2374 42.1994 52.0416 42.6169 51.8156C43.9887 51.0625 44.3466 50.1587 44.7343 48.8182L44.9878 48.773C45.5395 48.773 45.5545 48.8483 46.3298 48.7428C47.7166 48.547 49.0139 47.8541 49.9384 46.7094C50.5796 45.9412 51.1313 44.8416 51.2357 43.6667C51.3699 41.8592 50.9673 41.6182 50.8182 40.7144C50.9673 40.5337 51.355 40.3529 51.6234 40.127C53.0847 38.922 53.7259 37.009 53.3084 35.1262C53.1146 34.2224 52.8014 33.9362 52.5181 33.3638C52.6225 33.1981 52.9207 33.0325 53.0996 32.8969C54.6355 31.6618 55.4109 29.8241 55.2022 27.8057C55.0232 26.0584 53.9943 24.4769 52.5777 23.5882C52.4734 23.5279 52.3541 23.4677 52.2199 23.3923C51.5638 23.0459 52.205 23.061 51.9962 21.7656C51.7874 20.3647 50.8331 19.5062 49.3569 19.1296C49.4016 17.9246 49.2972 17.3823 48.7157 16.5087C48.149 15.6351 47.4184 15.2886 46.1956 14.9572C46.0764 14.6409 45.8676 14.2644 45.6588 13.9782C45.4053 13.6167 44.9878 13.2401 44.9282 13.1497Z" fill="#FEFEFE"/>
<path fill-rule="evenodd" clip-rule="evenodd" d="M18.8034 44.9772C18.9525 44.8416 19.1314 44.7362 19.2507 44.5555L18.7288 43.9981C18.4008 44.209 18.192 44.4651 17.8341 44.5856C16.9544 45.0676 15.4185 44.9471 14.4791 44.1036C13.7037 43.4408 13.1818 42.3864 13.4353 41.0458C13.7633 39.404 15.4036 38.3346 16.507 38.5304C16.7009 39.163 16.7009 39.7956 16.4921 40.5638L17.2526 40.8199C17.5956 39.4492 17.4912 38.6358 17.014 37.6718C16.7456 37.1295 15.7614 35.8793 14.6878 35.7438L14.4791 36.4668C15.0308 36.6927 15.9553 37.235 16.0299 37.7019C15.7913 37.7923 15.5229 37.8074 15.2395 37.9128C14.9264 38.0182 14.7773 38.0936 14.5089 38.2592C14.0764 38.5153 13.8975 38.681 13.5695 39.0124L13.2563 39.3739C11.8994 39.0726 10.5573 37.4308 10.2144 36.03C10.0205 35.2467 9.96089 34.4333 10.2144 33.4693C10.8407 31.0593 13.2563 29.4325 15.8211 29.8693C16.7903 30.035 17.5657 30.4417 18.192 30.9538C18.6095 31.3154 19.0121 31.7823 19.2955 32.2643C19.4148 32.4601 19.4148 32.5806 19.549 32.7614C19.7726 32.6861 20.0709 32.5806 20.1901 32.4149C20.1454 32.0836 19.6235 31.2852 19.3253 31.0442C19.4893 30.5773 20.1901 30.0501 20.548 28.7547C20.727 28.0919 20.8164 26.7062 20.5778 26.2543L19.7875 26.42C19.8472 26.6911 19.9217 26.6459 19.9516 27.3388C19.9814 28.4534 19.5042 29.5831 18.8332 30.3212C18.2367 30.1857 17.4464 29.1162 15.3141 28.9957C14.7027 28.9656 14.2256 29.0108 13.7037 29.1463C12.8984 29.3421 12.5704 29.6735 12.1529 29.5681C12.0038 28.9656 11.1538 27.7003 11.8696 25.953C12.3765 24.733 13.3309 23.7238 14.2852 23.543C14.3598 23.4828 14.3001 23.5129 14.4045 23.4677C14.4791 23.4376 14.4641 23.4526 14.5536 23.4376L14.9264 23.2568C14.8668 22.9405 13.8677 22.0217 13.823 20.169C13.808 19.8527 13.9124 19.6568 13.8975 19.3857C13.8677 18.8736 14.1808 18.2861 14.3747 17.8644C14.4492 17.6836 14.5238 17.6083 14.5984 17.4426C14.6282 17.3824 14.6431 17.3221 14.6878 17.2619C14.822 17.0661 14.7475 17.1866 14.8369 17.1263C14.9413 16.9004 15.0904 16.7949 15.2992 16.5991C15.3887 16.5087 15.4334 16.4485 15.5229 16.3581C15.5974 16.2828 15.7018 16.2376 15.7913 16.1623C15.9106 15.9815 16.0746 15.9062 16.2684 15.8309L16.4772 15.7556C16.5518 15.605 16.8351 15.5447 16.9991 15.4845C17.6999 15.2736 18.2367 15.1531 19.0718 15.1832C19.9665 15.2284 21.4129 15.8159 21.8602 16.3732C22.4865 16.8853 22.4716 16.8853 22.8593 17.4878C23.0084 17.7138 23.0382 17.7589 23.0681 17.9548L23.1575 18.1054C23.2917 18.4217 23.59 19.205 23.5005 19.4911L23.59 20.2443C23.5452 20.6811 23.3812 21.4342 23.2172 21.8711C22.8593 22.7447 23.2768 22.2175 21.6366 22.2175C21.3085 22.2175 20.6971 22.2627 20.4138 22.3229C20.2647 22.6393 20.3542 22.6242 20.5033 23.1815C20.9805 23.2869 21.3682 22.8351 22.412 23.061C23.7242 23.3623 24.5592 24.3715 24.8276 25.6066C25.0364 26.6309 24.7531 26.7815 24.5294 27.7756L25.2153 28.1221C25.7969 26.7363 25.9161 25.6668 25.2302 24.3564L24.6189 23.4225C24.4548 23.3171 24.3952 23.2267 24.2461 23.1213C24.1715 23.0459 24.1715 23.061 24.0671 22.9857C23.8733 22.8501 23.9777 22.9556 23.8733 22.7899L23.7242 22.7296C23.8435 22.4133 23.9627 22.2777 24.0522 21.9614C24.1566 21.6301 24.2013 21.2685 24.3355 20.9673L24.3057 20.8769C24.2908 20.8317 24.2908 20.8016 24.2908 20.7414L24.3654 19.8677C24.2013 19.0393 24.4101 19.2501 23.9478 17.8794L23.5303 17.0058C23.3961 16.6895 23.5154 16.8702 23.2172 16.6292C23.1128 16.5539 22.9637 16.3129 22.9189 16.2376L22.412 15.7405C22.1435 15.6351 22.1883 15.3941 21.3831 15.0627C21.1892 14.9874 20.1603 14.5506 20.1156 14.5054C20.1305 14.1891 20.4735 13.5866 20.6375 13.4811L21.2638 13.0293C21.4576 12.7883 21.8751 12.8033 22.2181 12.7431C22.7251 12.6678 22.9637 12.9088 23.4856 13.0142C23.6794 13.1648 23.7391 13.2251 24.0224 13.2552C24.082 13.0443 24.0671 12.7431 24.1715 12.5322C24.2162 12.4418 24.1715 12.5021 24.2312 12.4268C24.2908 12.3364 24.2759 12.3514 24.3355 12.3063C24.4996 11.5983 25.767 10.7247 26.3635 10.7096C26.5872 10.559 26.96 10.6644 27.2433 10.6644L27.6011 10.7548C27.4968 10.9657 27.3476 11.1314 27.1985 11.3573C27.0643 11.5832 26.9301 11.8242 26.8556 12.0803L26.5424 13.1648C26.3486 14.6108 26.7065 15.379 27.1687 16.328C26.7214 16.569 25.7521 16.1171 25.4837 16.0418C25.3346 16.3129 25.2153 16.3882 25.1258 16.7347C25.7969 17.0962 26.5126 17.2468 27.2284 17.1715C27.795 17.1112 27.6608 17.0661 28.0783 17.4276C28.302 17.6083 28.5704 17.774 28.8239 17.9548C29.1967 18.0903 29.3756 18.2409 29.7633 18.3464C30.151 18.4518 30.4492 18.497 30.8518 18.5723L30.9264 17.7891C29.6589 17.533 29.4651 17.4426 28.5704 16.7799C28.4809 16.7046 28.4362 16.6895 28.3616 16.5991L28.2871 16.5087C28.1827 16.3581 28.2423 16.4485 28.2125 16.343C27.9441 16.1774 27.5862 15.4393 27.4819 15.0778C27.3476 14.5958 27.1836 14.0234 27.3178 13.4661C27.288 13.2853 27.3775 12.9991 27.4371 12.7732C27.5713 12.3665 27.7652 11.9146 27.9888 11.6134C28.1678 11.3724 28.4809 10.9958 28.7344 10.815C29.0923 10.5439 30.1957 9.89622 30.6729 10.0167C30.7624 9.97154 30.6282 9.9866 30.8518 9.95647C30.8518 9.95647 31.0159 9.94141 31.0308 9.94141C31.1799 9.94141 31.3141 9.95647 31.4483 9.95647L32.0149 10.0468L32.7307 10.318C33.2526 10.4385 34.0131 11.1916 34.2815 11.5682C34.5201 11.8845 35.0569 12.8786 34.9525 13.3908C35.0121 13.4811 34.9674 13.3606 35.0121 13.5565C35.0271 13.6016 35.0271 13.7372 35.0271 13.7824C35.042 13.9481 35.0121 14.1138 34.9972 14.2795C34.5648 16.2075 34.028 18.2259 33.5061 20.169C32.1342 25.1246 30.8369 30.2459 29.5098 35.2317C29.2563 36.1806 29.0177 37.3404 28.7195 38.2442C27.8546 38.6057 26.9003 38.8618 25.7819 38.2894C22.7251 36.7229 23.9627 32.0685 27.3775 32.2342L27.4669 31.4961C26.9898 31.3304 26.1249 31.5564 25.767 31.707C21.8602 33.3338 22.74 38.8919 26.7065 39.389C27.1091 39.4341 27.3178 39.4341 27.631 39.389C27.8994 39.3739 28.2423 39.2534 28.4511 39.2534L26.8705 45.2483C26.7363 45.1429 26.5275 44.4952 26.2144 44.0283C25.2302 42.6124 23.918 41.7839 22.069 41.6182L21.9795 42.3864C23.247 42.7178 24.2013 42.7479 25.275 44.1036C25.8863 44.8718 26.3933 45.9111 26.3188 47.1764C26.3337 47.7337 25.9311 48.9387 25.6477 49.3906C25.2899 49.978 24.8873 50.4148 24.4548 50.7462C20.9357 53.3671 15.9702 50.0232 17.3421 45.5948C17.8789 45.5646 18.4455 45.1429 18.8034 44.9772ZM27.0942 47.6885C27.0643 47.3571 28.7344 41.2718 28.973 40.3831L31.8956 29.3572C32.2088 28.1371 32.507 26.8869 32.8798 25.697C33.2377 24.507 33.4613 23.2116 33.849 22.0217C34.2069 20.8619 34.4455 19.5363 34.7885 18.3614L34.9525 17.7288C35.4744 15.6652 36.1454 14.415 35.6086 12.5171C35.534 12.246 35.4744 12.0803 35.37 11.8694C35.2656 11.6586 35.0718 11.4176 35.0718 11.2519C34.8332 11.0259 34.8928 11.0109 34.6543 10.7548C34.5946 10.6945 34.6095 10.7247 34.5648 10.6644C34.5052 10.5891 34.535 10.6343 34.5052 10.5439C34.3709 10.4686 34.192 10.2728 34.028 10.1523C33.8341 10.0017 33.6701 9.91129 33.4912 9.77572C32.85 9.47447 32.3728 9.24853 31.5676 9.15815L31.1202 9.0979C31.0308 9.14309 31.165 9.11296 30.986 9.14309C30.9413 9.14309 30.8518 9.14309 30.8071 9.14309C30.6431 9.15815 30.5834 9.17321 30.4194 9.18828C30.0764 9.29372 30.0019 9.2184 29.316 9.50459C27.8546 10.1372 29.0177 10.2728 27.1836 9.83597L26.274 9.8661C26.1995 9.91129 26.0951 9.91129 25.9907 9.95647C25.8714 9.9866 25.7819 10.0318 25.6477 10.092C25.4092 10.1824 25.2302 10.2728 25.0066 10.3632C24.8873 10.4837 24.8873 10.4535 24.768 10.5439C24.768 10.5439 24.6636 10.6494 24.6487 10.6494C24.4996 10.7548 24.6189 10.6945 24.4846 10.7397L24.1268 11.1314C24.097 11.1615 24.097 11.1916 24.0671 11.2217C23.918 11.3724 24.0522 11.2519 23.9478 11.3121C23.9478 11.3272 23.5303 12.0954 23.5154 12.1255L23.0382 11.9749C22.5163 11.8092 22.6655 12.005 22.1585 11.9297C22.0093 11.9598 21.7857 11.9447 21.562 12.005C21.3831 12.0351 21.2041 12.1707 20.9954 12.1406L20.4735 12.5171C20.4586 12.5171 20.4436 12.5322 20.4287 12.5322V12.5473C20.2498 12.8334 20.1305 12.7732 19.9217 13.0594C19.713 13.3155 19.7726 13.5565 19.4744 13.7673L19.206 14.415C18.9525 14.4602 18.6095 14.3548 18.356 14.3397C17.7745 14.3247 16.5667 14.8217 16.2983 14.8669C16.2833 14.8669 16.2535 14.897 16.2535 14.882L16.1491 14.9573C16.0895 14.9874 16.0895 14.9723 16 15.0326C15.8956 15.1079 15.8509 15.1832 15.7018 15.2585C14.8668 15.7556 15.2545 15.4694 14.5834 16.1472C14.4492 16.2677 14.2852 16.3581 14.2107 16.4636C14.1361 16.569 14.0466 16.8251 13.9572 16.9757C13.6291 17.5782 13.5844 17.3824 13.2414 18.6175C12.8984 19.8527 13.0177 20.7865 13.3607 21.8861C13.4502 22.1723 13.6888 22.6995 13.7037 22.8501C13.4949 23.0911 13.1072 22.9104 12.1827 23.9798C9.52845 27.0074 11.5713 29.9145 11.5415 30.0802C11.452 30.2308 10.9003 30.6677 10.6915 30.9087C9.57319 32.189 9.36443 33.2735 9.23022 34.8551C9.36443 37.1446 10.5126 39.1178 12.809 40.127C12.4958 41.4676 12.302 42.5069 13.1669 43.8626C13.4651 44.3295 13.8826 44.7513 14.4045 45.0826C15.1501 45.5646 15.6123 45.5646 16.4772 45.7153C15.2843 50.6257 20.6971 54.3311 24.768 51.5445C26.0802 50.6558 26.6617 49.6918 27.0942 47.6885Z" fill="#FEFEFE"/>
<path fill-rule="evenodd" clip-rule="evenodd" d="M26.8555 68.1134C27.1836 67.9628 27.9291 67.6766 28.0782 67.4356L25.2749 66.2456C23.4557 65.4322 21.4576 64.649 19.6682 63.8356C19.1165 63.5795 17.2973 62.736 16.8052 62.6456C16.5815 63.5494 17.1034 63.7301 17.4911 63.926C17.7148 64.0465 17.685 64.167 17.7893 64.3628C18.4305 65.7184 19.6085 67.3602 20.7418 68.4297C22.2628 69.9058 25.2451 68.8063 26.8555 68.1134Z" fill="#FEFEFE"/>
<path fill-rule="evenodd" clip-rule="evenodd" d="M31.7613 60.3863C32.4622 59.7236 32.1192 59.2416 32.2534 58.5487C32.7455 58.6692 32.8051 58.5939 33.0288 57.4491L18.684 53.578C18.5796 53.8341 18.3858 54.4366 18.4603 54.6625C18.5796 54.8583 24.3503 57.193 25.0959 57.5546L31.7613 60.3863Z" fill="#FEFEFE"/>
<path fill-rule="evenodd" clip-rule="evenodd" d="M30.0168 66.6373C30.3747 66.2908 30.7624 65.4323 30.4045 64.9804C30.2703 64.8147 28.9133 64.2875 28.63 64.167C27.6906 63.7754 18.0876 59.6181 17.6254 59.4976C17.3122 59.8591 16.9991 60.7176 17.2526 61.1545C17.3122 61.2147 29.0177 66.321 30.0168 66.6373Z" fill="#FEFEFE"/>
<path fill-rule="evenodd" clip-rule="evenodd" d="M30.6878 63.414C31.15 62.9169 31.3141 62.3596 31.0755 61.7119C29.0028 60.8382 26.945 59.9194 24.9021 59.0759C24.3951 58.865 18.9972 56.5002 18.6691 56.4399C18.1323 56.8316 18.0578 57.5395 18.4007 57.9914C18.6393 58.3077 19.6235 58.624 20.041 58.8198L27.1388 61.9228C27.78 62.1939 30.2404 63.3537 30.6878 63.414Z" fill="#FEFEFE"/>
<path fill-rule="evenodd" clip-rule="evenodd" d="M12.9879 12.4868C12.7493 12.3362 12.6151 12.1856 12.5108 11.9596C12.3318 11.9295 12.4064 11.9295 12.3616 11.8391C11.8397 11.3872 9.21532 8.58559 8.88727 8.46509C8.76798 8.55546 8.76798 8.61571 8.64869 8.73622C8.15661 9.15797 8.45484 9.15797 9.23023 9.97136L11.8397 12.6375C11.9292 12.7278 12.0187 12.8182 12.1231 12.9086C12.1678 12.9387 12.2423 12.999 12.2573 13.014C12.3467 13.1345 12.302 13.0743 12.3616 13.2098C12.6599 13.255 13.5844 14.46 13.6888 14.5203C13.9273 14.445 13.8528 14.46 14.0168 14.204C14.2107 13.9178 14.2405 14.1136 14.3747 13.8726C14.315 13.7521 13.1519 12.7881 12.9879 12.4868Z" fill="#FEFEFE"/>
<path fill-rule="evenodd" clip-rule="evenodd" d="M7.56011 25.245C7.09786 25.0643 6.2479 24.8835 5.74091 24.748C5.12954 24.5823 4.50326 24.4166 3.89189 24.2509L0.641193 23.3622C0.581547 23.3471 0.477167 23.317 0.417521 23.317C0.402609 23.317 0.387698 23.317 0.372787 23.317H0.283318C0.134203 23.5279 0.0447344 23.6484 0 24.1153L7.26188 26.1036C7.47064 26.1187 7.44082 25.9831 7.48555 25.7572C7.53029 25.5312 7.57502 25.4258 7.56011 25.245Z" fill="#FEFEFE"/>
<path fill-rule="evenodd" clip-rule="evenodd" d="M63.7913 23.332C63.5527 23.2718 62.2405 23.6935 61.9125 23.7689C61.2564 23.9496 60.6599 24.1153 60.0784 24.2659C58.8109 24.5973 57.5732 24.9588 56.425 25.2601C56.44 25.5312 56.5294 25.8927 56.6785 26.1186L63.9553 24.1605C63.9852 23.9044 63.8808 23.573 63.7913 23.332Z" fill="#FEFEFE"/>
<path fill-rule="evenodd" clip-rule="evenodd" d="M64 40.5185L56.6486 38.5603C56.2609 39.6448 56.3653 39.3888 57.5881 39.7201C59.5266 40.2473 61.9124 40.9553 63.7763 41.3921L64 40.5185Z" fill="#FEFEFE"/>
<path fill-rule="evenodd" clip-rule="evenodd" d="M7.3663 38.5905C7.06807 38.5303 6.68037 38.711 6.38215 38.8014L0.0149514 40.5186C-0.0148715 40.6993 0.149155 41.1813 0.193889 41.3621C0.328092 41.3771 7.24701 39.5244 7.56015 39.3889L7.3663 38.5905Z" fill="#FEFEFE"/>
<path fill-rule="evenodd" clip-rule="evenodd" d="M54.9786 8.45032C54.4269 9.17333 49.8938 13.4813 49.6552 13.903L50.2666 14.4754L52.9506 11.7942C53.3682 11.3875 55.4856 9.29383 55.6347 9.0227C55.4856 8.87207 55.2172 8.55576 54.9786 8.45032Z" fill="#FEFEFE"/>
<path fill-rule="evenodd" clip-rule="evenodd" d="M38.1584 7.32046V7.41084L38.9935 7.62172L40.9469 0.22594L40.1118 0L38.1584 7.32046Z" fill="#FEFEFE"/>
<path fill-rule="evenodd" clip-rule="evenodd" d="M50.2814 50.189C50.0876 50.2944 49.7744 50.6107 49.67 50.7915L52.3541 53.5178C53.1742 54.3463 54.1584 55.3253 55.0233 56.214C55.1575 56.1387 55.5452 55.7772 55.6346 55.5814L50.2814 50.189Z" fill="#FEFEFE"/>
<path fill-rule="evenodd" clip-rule="evenodd" d="M25.4091 7.59173C25.6328 7.4411 25.8267 7.66704 25.7819 7.15491L25.1855 4.91057L23.8882 0.0302598C23.6048 0.0151972 23.3513 0.120636 23.0829 0.195949C23.0084 0.452015 24.1566 4.51894 24.2908 5.0612L24.5144 5.91977C24.589 6.20596 24.7381 6.49215 24.7232 6.74822C24.8276 6.89884 24.8425 6.98922 24.8872 7.18503C24.932 7.39591 24.932 7.41097 24.9916 7.57666C25.3346 7.66704 25.1258 7.53148 25.4091 7.59173Z" fill="#FEFEFE"/>
</svg>
