<svg width="600" height="649" viewBox="0 0 600 649" fill="none" xmlns="http://www.w3.org/2000/svg">
<path d="M215.038 438.145C320.359 466.652 428.616 403.515 456.837 297.126C485.058 190.737 422.555 81.3819 317.234 52.8751C211.913 24.3682 103.656 87.5043 75.4352 193.894C47.2145 300.283 109.717 409.638 215.038 438.145Z" fill="#A0DB21"/>
<path fill-rule="evenodd" clip-rule="evenodd" d="M284.762 440.725C289.375 432.393 307.409 426.462 320.13 428.015C327.819 428.863 332.991 432.393 334.948 431.404L336.066 428.721L337.464 425.474C321.528 416.86 301.817 418.978 286.998 428.58C285.461 429.71 283.224 431.969 281.546 432.252L296.505 376.19C298.042 376.896 300.279 379.438 302.096 380.85C309.925 386.499 318.173 389.041 327.539 388.335C338.163 387.487 347.39 382.121 353.541 374.355C361.23 364.47 363.327 351.337 360.111 340.464C357.595 331.991 350.885 321.541 340.82 317.446L337.604 324.083C346.691 329.167 351.304 335.521 353.261 343.994C359.692 369.695 331.034 390.735 308.527 376.19C302.935 372.519 302.236 370.118 299.161 366.87C306.011 338.628 314.818 307.561 322.506 278.895C325.023 269.292 327.539 258.984 330.475 249.664C333.271 240.203 335.647 229.894 338.163 220.292C340.68 210.689 343.755 200.663 346.132 191.061C348.229 181.599 351.025 171.008 353.82 161.83C356.477 152.792 357.875 142.06 363.327 135.705C364.165 134.152 364.864 133.305 365.983 132.175C366.402 131.751 367.101 130.904 367.381 130.763C368.918 129.351 367.94 130.057 369.058 129.633C369.897 128.221 370.736 127.797 371.994 127.374C372.972 126.103 372.273 126.809 373.671 125.82C374.091 125.538 374.65 125.256 375.209 124.973C376.467 124.267 377.026 123.561 378.844 123.279C380.382 122.29 386.952 120.031 388.909 121.16C390.167 119.889 388.769 120.596 391.146 120.313C391.425 120.313 392.963 120.454 393.243 120.454C394.92 120.596 396.458 120.596 397.996 120.737L402.888 122.008C408.201 123.702 408.62 124.267 409.599 124.973C409.599 124.973 409.738 125.114 409.878 125.256C412.954 126.103 418.825 131.751 420.503 133.87C421.481 134.999 421.761 135.423 422.46 136.411C423.578 137.965 423.438 137.682 423.858 139.518C425.955 141.071 428.89 150.25 428.191 153.357C428.751 154.204 428.611 152.651 428.89 155.334C428.89 155.616 428.751 157.17 428.751 157.593C428.611 159.288 428.611 160.559 428.331 162.394L424.836 173.691L421.202 179.622C420.642 180.187 420.503 180.187 420.223 180.47L418.546 182.447C417.427 184 417.008 184 415.75 185.13C415.19 185.695 414.911 185.977 414.212 186.401C412.954 187.389 413.653 186.824 412.814 187.107C411.975 188.095 411.556 188.66 410.298 188.66C408.62 190.355 404.007 192.473 400.792 192.614C396.178 194.591 384.855 193.885 379.403 191.343L376.607 190.355C374.79 191.625 373.951 193.885 373.252 196.285C374.37 197.274 374.79 197.133 375.489 198.121L387.511 200.946C398.275 203.346 402.329 197.415 407.082 201.369C412.814 206.17 419.943 208.571 427.912 208.995L428.331 201.652C419.804 200.239 420.223 199.957 412.954 196.568L413.932 195.862L420.223 191.343C420.363 191.343 420.642 191.061 420.642 191.202C420.782 191.343 421.062 191.061 421.202 190.919C421.481 189.648 421.341 190.213 422.6 189.225C423.718 187.954 424.417 187.389 425.675 185.977C426.094 185.412 426.654 184.424 427.073 184C428.611 182.023 427.492 183.294 428.89 182.588L429.31 181.035C430.149 179.199 430.428 179.34 431.127 177.645C431.407 177.081 431.686 176.233 431.966 175.81C433.364 172.985 431.966 174.962 433.364 173.974L435.74 165.36C435.601 164.654 435.601 165.078 435.601 164.089C435.601 163.524 435.74 162.536 435.88 161.971C436.16 160.276 436.16 159.711 436.16 158.299C436.16 157.17 436.299 154.91 436.299 153.498C436.299 151.662 435.74 150.956 436.16 148.979C438.816 149.544 440.773 149.968 442.45 151.662C449.999 155.051 457.688 169.031 454.892 177.787C455.451 179.058 454.892 180.752 454.333 182.447C454.333 182.588 453.634 184.988 453.634 184.988C453.634 187.53 452.376 185.836 454.752 186.965C472.227 185.695 484.109 199.251 479.217 215.067C475.442 214.078 472.646 213.372 468.872 213.09C465.936 212.807 462.721 213.231 460.065 212.949L451.118 214.643C449.72 215.349 447.203 215.914 445.666 216.479C444.128 217.185 441.472 218.88 440.074 218.738C438.536 220.292 438.956 219.727 437.278 220.715C436.16 221.563 436.02 221.845 434.342 222.269C433.643 223.54 432.525 224.387 431.267 224.669C430.428 225.658 429.729 226.223 428.611 227.352C428.471 227.493 427.492 228.623 427.213 228.764C425.675 230.035 427.213 229.047 425.675 229.612L424.557 231.871C423.578 233.001 423.019 233.566 422.46 234.413C421.901 235.119 421.901 235.26 421.341 235.684C420.642 236.39 421.062 236.107 420.363 236.39C419.664 239.214 415.75 244.863 414.491 248.675C412.814 253.759 412.395 258.843 411.696 263.926L402.749 265.338L397.017 267.174C396.178 267.88 395.479 268.586 394.081 268.445C392.404 270.281 392.404 269.857 390.447 271.128C389.608 271.693 389.468 271.975 388.769 272.54C386.952 273.952 388.35 273.105 386.672 273.67C386.253 274.8 385.414 275.506 384.436 276.071C383.597 277.765 383.177 277.624 382.199 279.036C381.779 279.601 381.5 280.166 381.22 280.589C380.242 281.86 380.801 281.154 379.962 281.719L378.984 284.261C376.607 289.627 376.048 292.31 374.79 298.382C374.929 299.794 374.51 299.794 375.069 301.206L381.64 301.489L382.618 297.959C382.339 296.829 382.199 298.947 382.478 296.123C382.478 295.699 382.758 294.569 382.898 294.146C383.317 292.734 383.737 292.028 384.156 290.898C384.855 289.062 385.834 286.379 387.371 284.967L390.587 280.731C391.146 280.307 391.565 279.742 392.124 279.319C392.404 279.177 392.823 278.895 393.103 278.612L393.802 278.33C394.641 277.2 396.738 275.647 398.135 275.647C399.394 274.517 398.275 275.223 400.093 274.376C400.372 274.094 401.211 273.811 401.77 273.67C403.448 273.105 404.286 272.823 405.824 272.682C414.072 269.434 428.89 275.223 433.504 281.719C434.902 282.849 434.063 282.425 435.601 283.131L438.816 280.448C439.794 279.46 439.934 279.601 440.773 278.189C431.966 269.857 432.805 269.716 419.245 265.197C419.664 256.018 423.578 243.309 429.17 237.802L434.203 232.436C435.041 231.589 435.041 231.165 436.299 230.883C437.418 229.612 437.697 229.329 439.375 228.2C440.074 227.776 440.354 227.493 441.053 227.211C442.171 226.505 441.472 226.929 442.59 226.646C444.408 224.528 451.957 221.986 454.892 221.845C455.871 221.28 454.892 221.563 456.43 221.139C456.989 220.998 456.989 220.998 457.548 220.998C458.806 220.856 459.645 220.715 460.764 220.715C505.218 219.868 520.736 263.644 503.401 291.039C494.175 305.443 483.271 307.561 480.614 310.103C481.733 312.645 484.249 314.622 485.927 317.022C488.163 319.847 488.862 321.4 490.26 324.507C498.648 343.57 490.121 365.176 472.786 374.637C471.388 373.649 468.033 368.565 466.355 366.729C456.989 356.138 448.182 353.455 435.74 349.642C433.084 350.207 429.03 349.078 425.955 349.078C422.6 349.078 419.524 349.925 416.588 349.642C414.911 339.758 414.771 330.014 420.642 320.129C422.18 317.587 424.976 314.622 426.094 312.362C424.277 310.95 422.6 308.691 420.782 307.702C416.029 311.939 411.276 320.694 409.459 328.319C406.104 341.311 409.599 347.807 409.179 352.043C405.684 352.89 396.318 357.409 394.92 360.092L399.254 365.882C404.706 360.798 417.847 355.856 425.815 356.844C471.668 356.421 489.701 414.741 454.333 440.866C445.806 447.079 429.17 452.728 419.245 448.915C417.148 441.148 418.825 442.419 414.352 433.805C413.373 431.828 411.975 429.851 410.018 427.733C408.62 426.038 405.684 423.638 404.566 422.226C407.502 418.978 417.427 418.695 423.019 419.684L424.697 412.623C414.771 409.093 401.91 413.753 396.738 417.424C389.049 422.649 383.597 429.004 380.242 441.854L387.511 443.408C391.006 433.664 390.726 433.381 396.877 426.744C401.071 428.015 405.405 433.523 407.082 436.347C409.319 439.877 410.857 443.549 411.556 449.056C414.911 477.722 378.984 493.679 359.832 472.074C355.079 466.708 355.358 463.742 353.401 460.635L346.831 462.471C346.831 466.849 351.025 473.486 353.96 476.875C354.939 478.146 356.197 478.993 357.315 480.405C352.143 507.801 319.71 523.899 294.268 509.071C282.665 502.434 275.395 491.561 273.019 479.84C271.621 471.791 272.04 466.849 274.417 457.952C275.955 452.163 280.708 442.701 284.762 440.725ZM421.202 123.279L416.169 119.889C411.136 116.642 409.878 116.924 408.34 116.077C407.642 115.512 407.642 115.512 407.362 115.088L405.545 114.806L399.114 113.252L394.641 112.688C394.501 112.688 394.221 112.97 394.221 112.829L386.253 113.252C384.855 113.817 376.188 116.077 375.768 115.936C374.51 117.206 375.908 116.218 374.231 117.206L372.833 117.771C370.875 118.619 371.574 118.76 369.617 119.325C368.779 120.172 367.52 121.019 366.542 121.16L360.95 126.385L358.853 129.068L354.659 134.293C353.96 137.117 351.444 140.93 348.648 152.086L332.711 211.678C325.582 238.226 318.592 264.774 311.602 291.322L270.503 445.385C269.804 447.785 269.943 448.774 268.825 449.621C267.986 453.575 266.169 457.388 265.19 462.189C264.352 466.566 264.352 469.532 264.352 473.486C265.19 507.236 302.795 534.913 338.862 516.414C349.207 511.048 358.713 501.022 363.746 485.348C372.273 487.748 374.37 490.29 383.876 489.867C389.888 489.725 395.619 487.89 399.533 485.771C412.395 478.711 415.75 470.238 419.384 457.67L421.761 457.246C426.933 457.246 427.073 457.952 434.342 456.964C447.343 455.128 459.505 448.632 468.173 437.9C474.184 430.698 479.356 420.39 480.335 409.375C481.593 392.43 477.819 390.17 476.421 381.698C477.819 380.003 481.453 378.309 483.97 376.19C497.669 364.893 503.681 346.959 499.766 329.308C497.949 320.835 495.013 318.152 492.357 312.786C493.336 311.233 496.132 309.679 497.809 308.408C512.208 296.829 519.477 279.601 517.52 260.678C515.843 244.298 506.197 229.47 492.916 221.139C491.938 220.574 490.82 220.009 489.561 219.303C483.41 216.055 489.422 216.196 487.464 204.052C485.507 190.919 476.56 182.87 462.721 179.34C463.14 168.043 462.162 162.959 456.71 154.769C451.397 146.579 444.547 143.331 433.084 140.224C431.966 137.259 430.009 133.728 428.052 131.045C425.675 127.656 421.761 124.126 421.202 123.279Z" fill="#FEFEFE"/>
<path fill-rule="evenodd" clip-rule="evenodd" d="M176.282 421.661C177.68 420.39 179.357 419.402 180.476 417.707L175.583 412.483C172.507 414.459 170.55 416.86 167.195 417.99C158.947 422.509 144.548 421.379 135.741 413.471C128.472 407.258 123.579 397.373 125.956 384.805C129.031 369.413 144.408 359.387 154.753 361.222C156.571 367.153 156.571 373.084 154.613 380.286L161.743 382.687C164.958 369.836 163.98 362.211 159.506 353.173C156.99 348.09 147.764 336.369 137.698 335.098L135.741 341.876C140.914 343.994 149.581 349.078 150.28 353.456C148.043 354.303 145.527 354.444 142.871 355.433C139.935 356.421 138.537 357.127 136.021 358.68C131.967 361.081 130.289 362.634 127.214 365.741L124.278 369.13C111.557 366.306 98.9751 350.914 95.7598 337.781C93.9425 330.438 93.3833 322.812 95.7598 313.775C101.631 291.181 124.278 275.93 148.323 280.025C157.409 281.578 164.679 285.391 170.55 290.192C174.464 293.581 178.239 297.959 180.895 302.478C182.013 304.314 182.013 305.443 183.271 307.138C185.368 306.432 188.164 305.443 189.283 303.89C188.863 300.783 183.97 293.299 181.175 291.04C182.712 286.662 189.283 281.72 192.638 269.575C194.315 263.362 195.154 250.37 192.917 246.134L185.508 247.687C186.067 250.229 186.766 249.806 187.046 256.301C187.325 266.751 182.852 277.342 176.561 284.261C170.969 282.991 163.56 272.964 143.57 271.835C137.838 271.552 133.365 271.976 128.472 273.247C120.923 275.083 117.847 278.189 113.933 277.201C112.535 271.552 104.567 259.69 111.277 243.31C116.03 231.872 124.977 222.41 133.924 220.716C134.623 220.151 134.064 220.433 135.042 220.01C135.741 219.727 135.601 219.868 136.44 219.727L139.935 218.033C139.376 215.067 130.01 206.453 129.59 189.084C129.45 186.119 130.429 184.283 130.289 181.741C130.01 176.94 132.945 171.433 134.763 167.479C135.462 165.784 136.161 165.078 136.86 163.525C137.139 162.96 137.279 162.395 137.698 161.83C138.956 159.994 138.257 161.124 139.096 160.559C140.075 158.441 141.473 157.452 143.43 155.617C144.269 154.769 144.688 154.205 145.527 153.357C146.226 152.651 147.204 152.228 148.043 151.522C149.161 149.827 150.699 149.121 152.517 148.415L154.474 147.709C155.173 146.297 157.829 145.732 159.366 145.167C165.937 143.19 170.969 142.06 178.798 142.343C187.186 142.766 200.746 148.274 204.94 153.499C210.811 158.3 210.671 158.3 214.306 163.948C215.704 166.066 215.983 166.49 216.263 168.326L217.102 169.738C218.36 172.703 221.156 180.047 220.317 182.73L221.156 189.79C220.736 193.885 219.199 200.946 217.661 205.041C214.306 213.231 218.22 208.289 202.843 208.289C199.767 208.289 194.036 208.713 191.38 209.278C189.982 212.243 190.82 212.102 192.218 217.327C196.692 218.315 200.326 214.079 210.112 216.197C222.414 219.021 230.243 228.482 232.759 240.062C234.716 249.664 232.06 251.076 229.963 260.397L236.394 263.644C241.846 250.653 242.964 240.627 236.533 228.341L230.802 219.586C229.264 218.598 228.705 217.75 227.307 216.762C226.608 216.056 226.608 216.197 225.629 215.491C223.812 214.22 224.791 215.208 223.812 213.655L222.414 213.09C223.532 210.125 224.651 208.854 225.49 205.888C226.468 202.782 226.887 199.393 228.146 196.568L227.866 195.721C227.726 195.297 227.726 195.015 227.726 194.45L228.425 186.26C226.887 178.493 228.845 180.47 224.511 167.62L220.597 159.429C219.339 156.464 220.457 158.159 217.661 155.899C216.682 155.193 215.284 152.934 214.865 152.228L210.112 147.568C207.596 146.579 208.015 144.32 200.466 141.213C198.649 140.507 189.003 136.412 188.584 135.988C188.723 133.023 191.939 127.374 193.476 126.386L199.348 122.149C201.165 119.89 205.079 120.031 208.295 119.466C213.048 118.76 215.284 121.02 220.177 122.008C221.995 123.42 222.554 123.985 225.21 124.268C225.769 122.291 225.629 119.466 226.608 117.489C227.027 116.642 226.608 117.207 227.167 116.501C227.726 115.654 227.586 115.795 228.146 115.371C229.683 108.734 241.566 100.544 247.158 100.403C249.255 98.9905 252.75 99.979 255.406 99.979L258.761 100.826C257.782 102.803 256.384 104.357 254.986 106.475C253.728 108.593 252.47 110.852 251.771 113.253L248.835 123.42C247.018 136.977 250.373 144.179 254.707 153.075C250.513 155.334 241.426 151.098 238.91 150.392C237.512 152.934 236.394 153.64 235.555 156.888C241.846 160.277 248.556 161.689 255.266 160.983C260.578 160.418 259.32 159.994 263.234 163.383C265.331 165.078 267.847 166.631 270.224 168.326C273.719 169.597 275.396 171.009 279.031 171.997C282.666 172.986 285.462 173.41 289.236 174.116L289.935 166.773C278.052 164.372 276.235 163.525 267.847 157.311C267.009 156.605 266.589 156.464 265.89 155.617L265.191 154.769C264.213 153.357 264.772 154.205 264.492 153.216C261.976 151.663 258.621 144.743 257.642 141.354C256.384 136.835 254.846 131.469 256.105 126.245C255.825 124.55 256.664 121.867 257.223 119.749C258.481 115.936 260.298 111.7 262.395 108.875C264.073 106.616 267.009 103.086 269.385 101.391C272.74 98.8493 283.085 92.7771 287.558 93.9068C288.397 93.4832 287.139 93.6244 289.236 93.342C289.236 93.342 290.774 93.2008 290.914 93.2008C292.312 93.2008 293.57 93.342 294.828 93.342L300.14 94.1892L306.85 96.7311C311.743 97.8608 318.873 104.921 321.389 108.452C323.626 111.417 328.658 120.737 327.68 125.538C328.239 126.386 327.819 125.256 328.239 127.092C328.379 127.515 328.379 128.786 328.379 129.21C328.518 130.763 328.239 132.317 328.099 133.87C324.045 151.945 319.012 170.868 314.12 189.084C301.258 235.543 289.096 283.555 276.654 330.297C274.278 339.193 272.041 350.067 269.245 358.539C261.137 361.928 252.19 364.329 241.706 358.963C213.048 344.277 224.651 300.642 256.664 302.195L257.503 295.276C253.029 293.723 244.921 295.841 241.566 297.253C204.94 312.504 213.188 364.611 250.373 369.271C254.147 369.695 256.105 369.695 259.04 369.271C261.557 369.13 264.772 368.001 266.729 368.001L251.911 424.203C250.653 423.215 248.695 417.143 245.76 412.765C236.533 399.491 224.231 391.724 206.897 390.171L206.058 397.373C217.941 400.479 226.887 400.762 236.953 413.471C242.684 420.673 247.437 430.417 246.738 442.278C246.878 447.503 243.104 458.8 240.448 463.037C237.092 468.544 233.318 472.639 229.264 475.746C196.272 500.317 149.721 468.968 162.582 427.451C167.614 427.169 172.927 423.215 176.282 421.661ZM254.008 447.08C253.728 443.973 269.385 386.923 271.622 378.591L299.022 275.224C301.957 263.786 304.753 252.065 308.248 240.909C311.603 229.753 313.7 217.609 317.335 206.453C320.69 195.58 322.927 183.153 326.142 172.139L327.68 166.208C332.572 146.862 338.863 135.141 333.831 117.348C333.132 114.806 332.572 113.253 331.594 111.276C330.615 109.299 328.798 107.04 328.798 105.486C326.561 103.368 327.12 103.227 324.884 100.826C324.325 100.261 324.464 100.544 324.045 99.979C323.486 99.2729 323.765 99.6965 323.486 98.8493C322.228 98.1432 320.55 96.3074 319.012 95.1777C317.195 93.7656 315.657 92.9183 313.98 91.6474C307.969 88.8232 303.495 86.705 295.946 85.8577L291.752 85.2928C290.914 85.7165 292.172 85.4341 290.494 85.7165C290.075 85.7165 289.236 85.7165 288.817 85.7165C287.279 85.8577 286.72 85.9989 285.182 86.1401C281.967 87.1286 281.268 86.4225 274.837 89.1056C261.137 95.0365 272.041 96.3074 254.846 92.2123L246.319 92.4947C245.62 92.9183 244.641 92.9183 243.663 93.342C242.545 93.6244 241.706 94.048 240.448 94.6129C238.211 95.4602 236.533 96.3074 234.436 97.1547C233.318 98.2844 233.318 98.002 232.2 98.8493C232.2 98.8493 231.221 99.8377 231.081 99.8377C229.683 100.826 230.802 100.261 229.544 100.685L226.188 104.357C225.909 104.639 225.909 104.921 225.629 105.204C224.231 106.616 225.49 105.486 224.511 106.051C224.511 106.192 220.597 113.394 220.457 113.677L215.983 112.264C211.091 110.711 212.489 112.547 207.736 111.841C206.338 112.123 204.241 111.982 202.144 112.547C200.466 112.829 198.789 114.1 196.832 113.818L191.939 117.348C191.799 117.348 191.659 117.489 191.519 117.489V117.631C189.842 120.314 188.723 119.749 186.766 122.432C184.809 124.832 185.368 127.092 182.572 129.069L180.056 135.141C177.68 135.565 174.464 134.576 172.088 134.435C166.636 134.294 155.312 138.954 152.796 139.377C152.656 139.377 152.377 139.66 152.377 139.518L151.398 140.225C150.839 140.507 150.839 140.366 150 140.931C149.022 141.637 148.602 142.343 147.204 143.049C139.376 147.709 143.01 145.026 136.72 151.38C135.462 152.51 133.924 153.357 133.225 154.346C132.526 155.334 131.687 157.735 130.848 159.147C127.773 164.796 127.353 162.96 124.138 174.539C120.923 186.119 122.041 194.874 125.257 205.182C126.095 207.865 128.332 212.808 128.472 214.22C126.515 216.479 122.88 214.785 114.213 224.811C89.3292 253.195 108.481 280.449 108.202 282.002C107.363 283.414 102.19 287.509 100.233 289.769C89.7486 301.772 87.7915 311.939 86.5333 326.766C87.7915 348.231 98.5557 366.73 120.084 376.191C117.148 388.759 115.331 398.502 123.439 411.212C126.235 415.589 130.149 419.543 135.042 422.65C142.032 427.169 146.366 427.169 154.474 428.581C143.29 474.616 194.036 509.354 232.2 483.23C244.502 474.898 249.954 465.861 254.008 447.08Z" fill="#FEFEFE"/>
<path fill-rule="evenodd" clip-rule="evenodd" d="M251.77 638.563C254.846 637.151 261.836 634.468 263.234 632.208L236.952 621.053C219.897 613.427 201.165 606.084 184.389 598.459C179.217 596.058 162.162 588.15 157.549 587.303C155.452 595.775 160.345 597.47 163.979 599.306C166.076 600.436 165.797 601.565 166.775 603.401C172.786 616.11 183.83 631.502 194.454 641.528C208.714 655.367 236.673 645.059 251.77 638.563Z" fill="#FEFEFE"/>
<path fill-rule="evenodd" clip-rule="evenodd" d="M297.763 566.122C304.333 559.908 301.118 555.39 302.376 548.894C306.989 550.024 307.548 549.318 309.645 538.585L175.163 502.294C174.184 504.694 172.367 510.343 173.066 512.461C174.184 514.297 228.285 536.185 235.274 539.574L297.763 566.122Z" fill="#FEFEFE"/>
<path fill-rule="evenodd" clip-rule="evenodd" d="M281.407 624.724C284.762 621.476 288.397 613.427 285.042 609.191C283.784 607.638 271.063 602.695 268.406 601.565C259.599 597.894 169.571 558.919 165.238 557.79C162.302 561.179 159.366 569.228 161.743 573.323C162.302 573.888 272.041 621.759 281.407 624.724Z" fill="#FEFEFE"/>
<path fill-rule="evenodd" clip-rule="evenodd" d="M287.698 594.506C292.032 589.846 293.569 584.621 291.333 578.549C271.901 570.358 252.609 561.745 233.458 553.837C228.704 551.86 178.099 529.689 175.023 529.124C169.991 532.796 169.292 539.433 172.507 543.669C174.744 546.635 183.97 549.6 187.884 551.436L254.427 580.526C260.438 583.068 283.504 593.941 287.698 594.506Z" fill="#FEFEFE"/>
<path fill-rule="evenodd" clip-rule="evenodd" d="M121.762 117.064C119.525 115.652 118.267 114.24 117.288 112.122C115.611 111.839 116.31 111.839 115.89 110.992C110.998 106.755 86.3937 80.4899 83.3182 79.3602C82.1998 80.2075 82.1998 80.7724 81.0815 81.9021C76.4682 85.856 79.2641 85.856 86.5335 93.4815L110.998 118.476C111.836 119.323 112.675 120.171 113.654 121.018C114.073 121.3 114.772 121.865 114.912 122.006C115.751 123.136 115.331 122.571 115.89 123.842C118.686 124.266 127.354 135.563 128.332 136.128C130.569 135.422 129.87 135.563 131.408 133.162C133.225 130.479 133.505 132.315 134.763 130.056C134.204 128.926 123.3 119.888 121.762 117.064Z" fill="#FEFEFE"/>
<path fill-rule="evenodd" clip-rule="evenodd" d="M70.876 236.672C66.5424 234.978 58.5741 233.283 53.8211 232.012C48.0895 230.459 42.2181 228.906 36.4865 227.352L6.01118 219.021C5.452 218.879 4.47344 218.597 3.91426 218.597C3.77446 218.597 3.63467 218.597 3.49487 218.597H2.6561C1.25815 220.574 0.419385 221.704 0 226.081L68.0801 244.721C70.0373 244.863 69.7577 243.592 70.1771 241.473C70.5965 239.355 71.0158 238.367 70.876 236.672Z" fill="#FEFEFE"/>
<path fill-rule="evenodd" clip-rule="evenodd" d="M598.044 218.738C595.807 218.173 583.505 222.127 580.429 222.833C574.278 224.528 568.687 226.081 563.235 227.493C551.352 230.6 539.749 233.989 528.985 236.813C529.125 239.355 529.963 242.744 531.361 244.862L599.581 226.505C599.861 224.104 598.882 220.997 598.044 218.738Z" fill="#FEFEFE"/>
<path fill-rule="evenodd" clip-rule="evenodd" d="M600 379.86L531.081 361.503C527.446 371.67 528.425 369.27 539.888 372.376C558.062 377.319 580.429 383.956 597.903 388.051L600 379.86Z" fill="#FEFEFE"/>
<path fill-rule="evenodd" clip-rule="evenodd" d="M69.0591 361.786C66.2632 361.221 62.6285 362.916 59.8326 363.763L0.140185 379.861C-0.139405 381.556 1.39834 386.075 1.81772 387.769C3.07588 387.911 67.9407 370.541 70.8764 369.271L69.0591 361.786Z" fill="#FEFEFE"/>
<path fill-rule="evenodd" clip-rule="evenodd" d="M515.425 79.2217C510.252 85.9999 467.754 126.387 465.518 130.341L471.249 135.707L496.412 110.571C500.327 106.758 520.178 87.1296 521.575 84.5878C520.178 83.1756 517.661 80.2102 515.425 79.2217Z" fill="#FEFEFE"/>
<path fill-rule="evenodd" clip-rule="evenodd" d="M357.735 68.6293V69.4766L365.564 71.4536L383.877 2.11819L376.049 0L357.735 68.6293Z" fill="#FEFEFE"/>
<path fill-rule="evenodd" clip-rule="evenodd" d="M471.388 470.521C469.571 471.51 466.635 474.475 465.657 476.17L490.82 501.729C498.509 509.496 507.735 518.675 515.843 527.007C517.101 526.3 520.736 522.911 521.575 521.076L471.388 470.521Z" fill="#FEFEFE"/>
<path fill-rule="evenodd" clip-rule="evenodd" d="M238.211 71.1724C240.308 69.7602 242.125 71.8784 241.705 67.0772L236.114 46.0365L223.952 0.283625C221.295 0.142412 218.919 1.1309 216.403 1.83696C215.704 4.23758 226.468 42.365 227.726 47.4486L229.823 55.4978C230.522 58.1808 231.92 60.8638 231.78 63.2645C232.759 64.6766 232.898 65.5239 233.318 67.3596C233.737 69.3366 233.737 69.4778 234.296 71.0312C237.512 71.8784 235.554 70.6075 238.211 71.1724Z" fill="#FEFEFE"/>
</svg>
